/* XPM */
static char *result[] = {
/* columns rows colors chars-per-pixel */
"50 50 165 2 ",
"   c #010020",
".  c #000021",
"X  c #010021",
"o  c #010121",
"O  c #020120",
"+  c #020121",
"@  c #020220",
"#  c #020221",
"$  c #030321",
"%  c #000022",
"&  c #010022",
"*  c #010023",
"=  c #020022",
"-  c #020122",
";  c #020023",
":  c #020222",
">  c #030323",
",  c #040322",
"<  c #040421",
"1  c #070522",
"2  c #060523",
"3  c #040524",
"4  c #070624",
"5  c #070724",
"6  c #090926",
"7  c #0C0B28",
"8  c #0C0B29",
"9  c #0B0C28",
"0  c #0B0D2A",
"q  c #0E0E2C",
"w  c #0E102A",
"e  c #12112C",
"r  c #12122E",
"t  c #111230",
"y  c #151630",
"u  c #181A33",
"i  c #1D1D35",
"p  c #1F213A",
"a  c #212139",
"s  c #21233A",
"d  c #24233D",
"f  c #282A41",
"g  c #313446",
"h  c #333549",
"j  c #343949",
"k  c #3E4553",
"l  c #414454",
"z  c #434656",
"x  c #444A56",
"c  c #4B4C5E",
"v  c #4C4D5F",
"b  c #525366",
"n  c #5A596C",
"m  c #5C606A",
"M  c #676F76",
"N  c #6C6D7A",
"B  c #737581",
"V  c #7A7F86",
"C  c #7B7F86",
"Z  c #80858D",
"A  c #848890",
"S  c #898E92",
"D  c #8A8F95",
"F  c #898E96",
"G  c #8B9095",
"H  c #8C9196",
"J  c #8F9297",
"K  c #8E9397",
"L  c #8F9398",
"P  c #8F9299",
"I  c #8E929A",
"U  c #8F959B",
"Y  c #93969B",
"T  c #93979F",
"R  c #93989C",
"E  c #93989E",
"W  c #95999F",
"Q  c #969A9E",
"!  c #9398A0",
"~  c #979CA0",
"^  c #999CA1",
"/  c #999CA2",
"(  c #9B9DA2",
")  c #999EA3",
"_  c #9B9FA5",
"`  c #9CA0A5",
"'  c #9DA1A5",
"]  c #9CA0A7",
"[  c #9DA0A7",
"{  c #9DA2A6",
"}  c #9EA2A6",
"|  c #9EA2A7",
" . c #9FA2A7",
".. c #9EA3A8",
"X. c #9FA3A8",
"o. c #9FA2AC",
"O. c #A1A4A9",
"+. c #A1A2AC",
"@. c #A4A7AC",
"#. c #A4A8AC",
"$. c #A7AAAF",
"%. c #A8AAAF",
"&. c #ABABB0",
"*. c #AAACB1",
"=. c #A9ACB2",
"-. c #AAADB2",
";. c #ABADB2",
":. c #ADAFB3",
">. c #ACADB4",
",. c #ADB0B5",
"<. c #AEB0B5",
"1. c #ADB0B7",
"2. c #ADB1B7",
"3. c #ADB1B8",
"4. c #B0B2B9",
"5. c #B3B7BC",
"6. c #B6B7BE",
"7. c #BBBCBF",
"8. c #B7BAC0",
"9. c #B7BBC0",
"0. c #B8BBC1",
"q. c #B9BCC2",
"w. c #BABEC3",
"e. c #BDBDC1",
"r. c #BDBEC1",
"t. c #BEBEC5",
"y. c #BCC0C4",
"u. c #BFC1C4",
"i. c #BEC1C7",
"p. c #BEC2C6",
"a. c #BFC2C6",
"s. c #C2C2C5",
"d. c #C1C1C7",
"f. c #C0C3C8",
"g. c #C1C4C8",
"h. c #C1C4C9",
"j. c #C5C6C9",
"k. c #C6C6C9",
"l. c #C5C9CC",
"z. c #C5C8CD",
"x. c #C7CACE",
"c. c #C8C9CD",
"v. c #CACCD1",
"b. c #CDCFD4",
"n. c #CCD0D3",
"m. c #CDD0D4",
"M. c #CED0D4",
"N. c #D1D2D5",
"B. c #D3D3D5",
"V. c #D2D3D6",
"C. c #D4D5D7",
"Z. c #D3D4D9",
"A. c #D5D7DA",
"S. c #D6D7DB",
"D. c #DADBDD",
"F. c #DBDCDC",
"G. c #DBDDDD",
"H. c #DADCDF",
"J. c #DEDFE2",
"K. c #E1E3E3",
"L. c #E0E1E4",
"P. c #E7E8E6",
"I. c #E7E8E9",
"U. c #E9EAE8",
"Y. c #F4F4F5",
/* pixels */
"& & & & & & & & & & & & & & & & & & & & & & & & & & & & & & & & & & & & & & & & & & & & & & & & & & ",
"& & & & & & & & & & & & & & & & & & & & & & & & & & & & & & & & & & & & & & & & & & & & & & & & & & ",
"& & & & & & & & & & & & & & & & & & & & & & & & & & & & & & & & & & & & & & & & & & & & & & & & & & ",
"& & & & & & & & & & & & & & & & & & & & & & & & & & & & & & & & & & & & & & & & & & & & & & & & & & ",
"& & & & & & & & & & & & & & & & & & & & & & & & & & & & & & & & & & & & & & & & & & & & & & & & & & ",
"& & & & & & & & & & & & & & & & & & & & & & & & & & & & & & & & & & & & & & & & & & & & & & & & & & ",
"& & & & & & & & & & & & & & & & & & & & & & & & & & & & & & & & & & & & & & & & & & & & & & & & & & ",
"& & & & & & & & & & & & & & & & & & & & & & & & & & & & & & & & & & & & & & & & & & & & & & & & & & ",
"& & & & & & & & & & & & & & & & & & & & & & & & & & & & & & & & & & & & & & & & & & & & & & & & & & ",
"& & & & & & & & & & & & & & & & & & & & & & & & & & & & & & & & & & & & & & & & & & & & & & & & & & ",
"& & & & & & & & & & & & & & & & & & & & & & & & & & & & & & & & & & & & & & & & & & & & & & & & & & ",
"& & & & & & & & & & & & & & & & & & & & & & & & & & & & & & & & & & & & & & & & & & & & & & & & & & ",
"& & & & & & & & & & & & & & & & & & & & & & & & & & & & & & & & & & & & & & & & & & & & & & & & & & ",
"& & & & & & & & & & & & & & & & & & & & & & & & & & & & & & & & & & & & & & & & & & & & & & & & & & ",
"& & & & & & & & & & & & & & & & & & & & & & & & & & & & & & & & & & & & & & & & & & & & & & & & & & ",
"& & & & & & & & & & & & & & & & & & & & & & & & & & & & & & & & & & & & & & & & & & & & & & & & & & ",
"& & & & & & & & & & & & & & & & & & & & & & & & & & & & & & & & & & & & & & & & & & & & & & & & & & ",
"& & & & & & & & & & & & & & & & & & X X & * : > X . X & X . & & & & & & & & & & & & & & & & & & & & ",
"& & & & & & & & & & & & & & & & & & % , 7 O d 4 q t > * * . & & & & & & & & & & & & & & & & & & & & ",
"& & & & & & & & & & & & & & & & & & & & 8 n t.j.U.P.j.N r & & X & & & & & & & & & & & & & & & & & & ",
"& & & & & & & & & & & & & & & & & & . - e d.Y.B.k.s.c.C.6.i * X & & & & & & & & & & & & & & & & & & ",
"& & & & & & & & & & & & & & & & & & o @ 4.F.e.K.I.A.m.u.x.o.5 X & & & & & & & & & & & & & & & & & & ",
"& & & & & & & & & & & & & & & & & & * v G.7.D.L.J.Z.8.z.p.l.b = & & & & & & & & & & & & & & & & & & ",
"& & & & & & & & & & & & & & & & & & # +.&.V.H.S.v.0.i.=.f.q.I $ & & & & & & & & & & & & & & & & & & ",
"& & & & & & & & & & & & & & & & & & 2 y.5.n.b.S.M.2.[ w.w.9.] y & & & & & & & & & & & & & & & & & & ",
"& & & & & & & & & & & & & + & X & & 1 >.<.g.N.h.3.1.X.{ ,.*.G s & & & & & & & & & & & & & & & & & & ",
"& & & & & & & & & & & & & X & & & & < / } *.r.:.O.Y W K  .#.C p & & & & & & & & & & & & & & & & & & ",
"& & & & & & & & & & & & & & & & & . & B ( @.%.;.Q L U H -.` m 9 & & & & & & & & & & & & & & & & & & ",
"& & & & & & & & & & & & & & & & & & & a ' ^ | J _ D S $.a.V j o & & & & & & & & & & & & & & & & & & ",
"& & & & & & & & & & & & & & & & & & % + c ) ^ ~ P E .._ Z x 0 X & & & & & & & & & & & & & & & & & & ",
"& & & & & & & & & & & & & & & & & & & X - h A R ! T F M k w ; X & & & & & & & & & & & & & & & & & & ",
"& & & & & & & & & & & & & & & & & & & & & X 6 f l z g u 3 & & & & & & & & & & & & & & & & & & & & & ",
"& & & & & & & & & & & & & & & & & & & & & X & &   o   X ; X & & & & & & & & & & & & & & & & & & & & ",
"& & & & & & & & & & & & & & & & & & & & & & X & & & & & & & & & & & & & & & & & & & & & & & & & & & ",
"& & & & & & & & & & & & & & & & & & & & & & & & & & & & & & & & & & & & & & & & & & & & & & & & & & ",
"& & & & & & & & & & & & & & & & & & & & & & & & & & & & & & & & & & & & & & & & & & & & & & & & & & ",
"& & & & & & & & & & & & & & & & & & & & & & & & & & & & & & & & & & & & & & & & & & & & & & & & & & ",
"& & & & & & & & & & & & & & & & & & & & & & & & & & & & & & & & & & & & & & & & & & & & & & & & & & ",
"& & & & & & & & & & & & & & & & & & & & & & & & & & & & & & & & & & & & & & & & & & & & & & & & & & ",
"& & & & & & & & & & & & & & & & & & & & & & & & & & & & & & & & & & & & & & & & & & & & & & & & & & ",
"& & & & & & & & & & & & & & & & & & & & & & & & & & & & & & & & & & & & & & & & & & & & & & & & & & ",
"& & & & & & & & & & & & & & & & & & & & & & & & & & & & & & & & & & & & & & & & & & & & & & & & & & ",
"& & & & & & & & & & & & & & & & & & & & & & & & & & & & & & & & & & & & & & & & & & & & & & & & & & ",
"& & & & & & & & & & & & & & & & & & & & & & & & & & & & & & & & & & & & & & & & & & & & & & & & & & ",
"& & & & & & & & & & & & & & & & & & & & & & & & & & & & & & & & & & & & & & & & & & & & & & & & & & ",
"& & & & & & & & & & & & & & & & & & & & & & & & & & & & & & & & & & & & & & & & & & & & & & & & & & ",
"& & & & & & & & & & & & & & & & & & & & & & & & & & & & & & & & & & & & & & & & & & & & & & & & & & ",
"& & & & & & & & & & & & & & & & & & & & & & & & & & & & & & & & & & & & & & & & & & & & & & & & & & ",
"& & & & & & & & & & & & & & & & & & & & & & & & & & & & & & & & & & & & & & & & & & & & & & & & & & ",
"& & & & & & & & & & & & & & & & & & & & & & & & & & & & & & & & & & & & & & & & & & & & & & & & & & "
};
