/* XPM */
static char *_b2aabef81af481aadf98eb6a9993197OC5sgh9alZYfwV6O[] = {
/* columns rows colors chars-per-pixel */
"50 50 230 2 ",
"   c #010022",
".  c #060826",
"X  c #060728",
"o  c #070928",
"O  c #090D2B",
"+  c #0D122C",
"@  c #0D1432",
"#  c #111632",
"$  c #131B34",
"%  c #161C35",
"&  c #131C3A",
"*  c #1A233A",
"=  c #1B243D",
"-  c #20283F",
";  c #141A41",
":  c #1C2643",
">  c #1E2944",
",  c #1E2A4A",
"<  c #222C42",
"1  c #222D4B",
"2  c #26324D",
"3  c #2A3449",
"4  c #222D52",
"5  c #232D5A",
"6  c #263254",
"7  c #293654",
"8  c #2D3953",
"9  c #25325A",
"0  c #2A375B",
"q  c #2D3B5B",
"w  c #313E5B",
"e  c #222D6A",
"r  c #2A3767",
"t  c #2D3B63",
"y  c #313E63",
"u  c #303F6B",
"i  c #293879",
"p  c #323F72",
"a  c #33415D",
"s  c #344364",
"d  c #34446C",
"f  c #39496A",
"g  c #2F4074",
"h  c #354474",
"j  c #3B4C73",
"k  c #364778",
"l  c #35487C",
"z  c #3B4D7C",
"x  c #3E5075",
"c  c #3E517B",
"v  c #414F7E",
"b  c #41547B",
"n  c #45577B",
"m  c #0F2A8E",
"M  c #0C2B94",
"N  c #102D94",
"B  c #173999",
"V  c #283A87",
"C  c #203D9B",
"Z  c #173EA1",
"A  c #1C419D",
"S  c #374885",
"D  c #3D4F8A",
"F  c #3D5187",
"G  c #384E93",
"H  c #3D5497",
"J  c #1847A5",
"K  c #1D51AD",
"L  c #1758B1",
"P  c #274CA4",
"I  c #2354AB",
"U  c #2856AA",
"Y  c #3B58A6",
"T  c #285CB2",
"R  c #1A66BA",
"E  c #2468BA",
"W  c #3073BD",
"Q  c #435584",
"!  c #475A82",
"~  c #475B8B",
"^  c #465B8C",
"/  c #435994",
"(  c #465897",
")  c #445B9D",
"_  c #4A618C",
"`  c #52678D",
"'  c #4D6293",
"]  c #4D659C",
"[  c #516899",
"{  c #435AA5",
"}  c #4A64A4",
"|  c #4B66A7",
" . c #546CA2",
".. c #566EAB",
"X. c #5A75A9",
"o. c #4B6DB1",
"O. c #4A77BB",
"+. c #5475B5",
"@. c #5878B5",
"#. c #5D7DBB",
"$. c #667EAF",
"%. c #607CB1",
"&. c #627EB9",
"*. c #2467C0",
"=. c #2B7AC3",
"-. c #557EC2",
";. c #5380B9",
":. c #6880A9",
">. c #6383BB",
",. c #698ABD",
"<. c #748FBC",
"1. c #2E86C6",
"2. c #3583C4",
"3. c #388AC8",
"4. c #3D94CB",
"5. c #498AC8",
"6. c #5989C6",
"7. c #4493CC",
"8. c #4C94CC",
"9. c #5395CD",
"0. c #5899CC",
"q. c #4E94D3",
"w. c #429BD0",
"e. c #4C9CD1",
"r. c #5A99D3",
"t. c #6486C2",
"y. c #618BC6",
"u. c #658BC6",
"i. c #6B8DC4",
"p. c #708EC3",
"a. c #6790C6",
"s. c #6D91C4",
"d. c #6394CB",
"f. c #6D93CA",
"g. c #649BCD",
"h. c #6C9CCE",
"j. c #7193C5",
"k. c #7194CA",
"l. c #759CCD",
"z. c #7A9ECC",
"x. c #649BD2",
"c. c #6C9BD3",
"v. c #759BD1",
"b. c #4DA1CD",
"n. c #49A0D0",
"m. c #54A4D3",
"M. c #5BA4D3",
"N. c #55A8D7",
"B. c #5CABD5",
"V. c #5AA4DA",
"C. c #5BACD9",
"Z. c #5BB1D6",
"A. c #5CB2DC",
"S. c #64A3CF",
"D. c #74A1CF",
"F. c #60B3CE",
"G. c #62A4D4",
"H. c #6CA3D3",
"J. c #65AAD5",
"K. c #6DACD5",
"L. c #69A4D9",
"P. c #63ABD9",
"I. c #6BAADA",
"U. c #73A5D4",
"Y. c #7AA4D5",
"T. c #73AAD5",
"R. c #7CAAD6",
"E. c #73ADDA",
"W. c #7BADDA",
"Q. c #64B3DB",
"!. c #6CB3DB",
"~. c #69B5D9",
"^. c #6CBADD",
"/. c #7AB2D6",
"(. c #74B4DC",
"). c #7CB3DB",
"_. c #74BBDD",
"`. c #7ABDDD",
"'. c #6ABBE2",
"]. c #77BBE1",
"[. c #7ABDE2",
"{. c #6EC1DE",
"}. c #76C2DF",
"|. c #7CC1DE",
" X c #6EC2E3",
".X c #75C7E4",
"XX c #7CC4E2",
"oX c #7CC9E4",
"OX c #7AD3E6",
"+X c #819AC2",
"@X c #86A6CF",
"#X c #83ABD4",
"$X c #86ABD6",
"%X c #82B2DC",
"&X c #89B2D9",
"*X c #82BCDB",
"=X c #8CBBDD",
"-X c #95BADC",
";X c #87BAE2",
":X c #83BDE0",
">X c #90BDE0",
",X c #84C2DF",
"<X c #8CC3DE",
"1X c #92C2DD",
"2X c #98C6DD",
"3X c #85C4E2",
"4X c #8CC4E2",
"5X c #84CAE4",
"6X c #8BCBE4",
"7X c #89CEE8",
"8X c #92C4E2",
"9X c #9AC4E3",
"0X c #93CBE2",
"qX c #9CCDE3",
"wX c #85D3E7",
"eX c #8BD2E5",
"rX c #8CDAE6",
"tX c #8AD2E8",
"yX c #95D2E6",
"uX c #9CD3E5",
"iX c #97D9E7",
"pX c #9ADBE6",
"aX c #A4CCE3",
"sX c #A3D3E4",
"dX c #A6D7E7",
"fX c #A4DAE6",
"gX c #ACDCE6",
"hX c #B4DBE6",
"jX c #AAE0E8",
"kX c #C5DBE4",
/* pixels */
"                                                                                                    ",
"                                                                                                    ",
"                                                                                                    ",
"                                          X X o O @ o X                                             ",
"                                X X   o $ > > t 0 7 > = : & X o @                                   ",
"                              . = = % 2 j _ x n b n s 8 q 2 > 0 , @ o X                             ",
"                            + * > q k ^ X.~ Q b Q _ b n f q 7 q s 6 1 # &                           ",
"                        X # > 4 D H z ' [ ~ ~ X.@.@.s.' b d p 0 / G r > : +                         ",
"                      X % 2 < s ^  .X.[ '  .( &.i.s.Y.,.,.:.D  .z i S z l 9 O                       ",
"                    . # w 8 8 j n  . .j.@Xt.R.f.l.$X8X).v.&X@X>.! k S D ] 0 1 # o                   ",
"                X & > h w 8 j Q $.l.#Xi.l.l.%XT.[.3XU.c.y.d.l.+Xz.%.( S ^ d d 2 @ o                 ",
"                O 7 j j w b X.<.Y.-X-Xz.l.4X).D.`.,XH.d.T.g.*X9X9Xk.j.| G d d j = +                 ",
"            X O % 6 y j F ` i.#Xk.$X#XU.T.E.3XuX=X=X&X1XXX).(.K.:X8X$Xt.) l z y q 2 O               ",
"            X * 2 q Q D / >.W.U.$X%X8X).0XeXdXfXyXdX9X-XdX0X(.S.6.f.W.W.u.( p j j s & X             ",
"            O = 0 d D { +.f.W.d.=X1X4XsXpXfXuXhXuXhX3XaXkXsXyX!.~.g.d.].>X>./ o.| n < +             ",
"            # = 6 u D s.8X0X/.6.qXsX0X8X`.(.I.G.r.r.E.E.R.=XuXwXtXJ.P.[.3X%X@.o.| [ j : .           ",
"            % 7 S | k.%XqXf.x.W.6XyXqX0XE.P._.`.P.N.V.P.I.U.%XsXdXuXP.I.!.3XR.%.k z s % .           ",
"          O b l ( u.Y.).).x.(.rXiXeXeX4X(.%XP.A.M.r.M.P._.r.-.).qXhX7X5X_.'.0Xt.[ ! s 7 *           ",
"          , ! y | +.Y.4XiX!..XeX0XuX6X(.G.G.K.J./.T.9.0.g.Q.P.6.3XuXdXiX!.oXuX;X>.Q x s :           ",
"        * q ! j ) +.Y.6XiXOXrXfX3XI.T.J.m.S.r.7.5.5.g.9.9.G.(.V.G.uXhXeX.X'.7X;Xj.Q ' w = +         ",
"      @ = s ` X.] i.%X3X(.oXgXsXW.K.B.K.G.9.2.*.=.E W 5.3.8.r.Q.!.<XhXoX XJ.Q.;Xv.X.Q j 7 :         ",
"      # = 7 f [ #.a.U.h.|.pXgX1X/.B.^.M.8.2.E T T K T U E 4.7.8.`.(.<X2XoXOX`.c.Y.i.] j f :         ",
"      X * s a h s.v.d.E.XXyXfX,X!.`.B.3.2.R J B B A A A U 4.7.m.^.|.<X2XXXOX^.T.f.t.F h w >         ",
"      O 1 8 f z j.h.6.`.5XeXiX*XC._.8.4.=.J N Z U K A V P 2.b.S.Q.Q./.-XrXwX^.:Xk.X.Q Q s 6 X       ",
"      O = a b ] ,.c.I.G.].tXiX!.A.B.7.w.E N Z T 5.7.T B A 2.B.M.A._.K.1XrXrX^.3XR.i.#.^ n s X       ",
"      o $ s `  .t.U.oXx.[.pXiX*XC.e.7.w.I B P W 0.F.W J J 3.B.Z.~.~./.1XeXwX5XyXT.p.@.Q w * o       ",
"      o # 8 n ' #.t.I.I.0XjX5X(.A.e.7.4.I C Z I E W L Z K 2.b.Z.K.~.R.*XuXrX6X=X#X#.) j s % O       ",
"        + 3 s x +.#.d.P.3XfX5X~.V.C.3.w.E B M B Z J A J L W b.M.B.C.r.I.uXtX6XY.l.u.) d 8 = X       ",
"        # 8 a [ ..U.(.!.].pXpX(.x._.7.4.2.J m N M J J J I ;.M.M.N.P.G.1X0XJ.H.[.=X@.G 0 8 : o       ",
"        . 7 j '  .#X:X3XP.XX5X`.1X(.G.3.n.3.K m N B A U ;.e.M.e.A.G./.%X0X|.!.H.#X@.i t - # @       ",
"        o 0 8 d  .t.:X(.9.A._.0X<X/.Q.M.7.w.1.I B K 7.b.Z.Z.0.B.!.M./.&XI.(.(.h.-.Y i u q O         ",
"        X < < j z l.v.I.].'.A.<X<XG.P._.m.4.3.1.=.1.1.w.m.m.7.Q..XXX=XE.(.L.:XH.O.H i d 7 +         ",
"        O O < k z | #.L.[.Q.8.0X(.<X*XoXA.N.C.w.7.e.7.e.5.r.V.'.yX,XH.6.H.I.;X8X+.i l d , O         ",
"          + * d c D ( #.).x.r.~.<XuX_.!.!.G.q.M.q.C.C.q.q.V.(.0X2X!.G.6.O.L.&X6.+.k 4 > @           ",
"          & * s t u h ..s.y.^.}.5X<X6X_.*XE.r.c.W.r.`.).=X`.<XqX4X^.|.J.6.y.u.G V e ; + X           ",
"          O # , k j D v %.T.d.0.Q.oXXX|.oX,X%X4XqX0XsX0XuXgXgXfX_.J.5.!.>.k.| ..g 4 @ o X           ",
"            X + 4 s | l ' s.c.XXB.^.^.}.wX5XuXuXtX7XyX6X6XuX6XoX X_.!.+...S h s 1 > + X             ",
"              O O t h l Q X.k.U.0.G.M.B.m.Q.'.oXoXeXoX.X5X`._.5XoXwX(.6.Y t 7 u 6 , X               ",
"                O # = r y j ` %.0.H.!.S.P.{.oXJ.P..X}.~.~.J.|.XXE.%X-.{ z s y d 6 &                 ",
"                X o 1 1 d h s Q @.@.6.T.).0X3XH.h._.(.g.g.h.6.>Xf.l.| | S S 6 , # .                 ",
"                    # = 7 9 y 0 t Q ] d.H.4X%XE.a.l.D.y.>.z.+.z.| H ) / h 1 : @ X                   ",
"                      O # , 9 5 e t ~ X.o.,.<.l.#.X...i.| H H | V i / k 6 # X X                     ",
"                        O # 1 t e F s j z z ^ [ ] h z Q F k l r u 6 0 > + o                         ",
"                          o & , = < 8 s x f x _ X.b s w s 3 w w 2 % + + . X                         ",
"                                X . % * 2 q f d q d x w y q > # $                                   ",
"                                    . + # : 1 1 < * * 6 : , #                                       ",
"                                          O @ @ + + + o   o X                                       ",
"                                                                                                    ",
"                                                                                                    ",
"                                                                                                    "
};
