/* XPM */
static char *_844401e56a847529b67d613d5a191cdyKewbUm3FlCaLMG2[] = {
/* columns rows colors chars-per-pixel */
"50 50 108 2 ",
"   c #010101",
".  c #04000D",
"X  c #0B000B",
"o  c #0B0B0B",
"O  c #150007",
"+  c #1B0007",
"@  c #13000A",
"#  c #1C0009",
"$  c #020014",
"%  c #080010",
"&  c #01001C",
"*  c #121514",
"=  c #1E1E1E",
"-  c #220107",
";  c #25010A",
":  c #2B010B",
">  c #300109",
",  c #3C010A",
"<  c #010022",
"1  c gray18",
"2  c gray23",
"3  c #45020B",
"4  c #4C020B",
"5  c #56020D",
"6  c #5B030D",
"7  c #63030E",
"8  c #6A030F",
"9  c #6E0310",
"0  c #720310",
"q  c #7C0412",
"w  c #7B0B17",
"e  c #770E18",
"r  c #790D19",
"t  c #74131D",
"y  c #651922",
"u  c #6B1D25",
"i  c #7A1721",
"p  c #5E2228",
"a  c #572E33",
"s  c #573A3C",
"d  c #5F3B3E",
"f  c #6D262E",
"g  c #712029",
"h  c #673137",
"j  c #6A353A",
"k  c #653C3E",
"l  c #673F43",
"z  c #6B3D42",
"x  c #434645",
"c  c #5D4A4C",
"v  c gray33",
"b  c #585858",
"n  c #64474A",
"m  c #6D464A",
"M  c #714A4E",
"N  c #6A5151",
"B  c #6C5658",
"V  c #646464",
"C  c gray42",
"Z  c #736364",
"A  c #776769",
"S  c #7F696B",
"D  c #840514",
"F  c #8C0514",
"G  c #860B19",
"H  c #940415",
"J  c #9A0516",
"K  c #930A19",
"L  c #9E0819",
"P  c #85101C",
"I  c #A20517",
"U  c #A50518",
"Y  c #AB0519",
"T  c #B2051A",
"R  c #BC061B",
"E  c #C4061C",
"W  c #CC071E",
"Q  c #D0071F",
"!  c #D0081F",
"~  c #806C6D",
"^  c #827172",
"/  c #847778",
"(  c #827879",
")  c #808080",
"_  c #938C8D",
"`  c #9A9797",
"'  c #A8A7A7",
"]  c #ACACAC",
"[  c #B0AFAF",
"{  c #B4B5B5",
"}  c #BEBFBE",
"|  c gray76",
" . c gray77",
".. c #CECFCF",
"X. c LightGray",
"o. c #D7D8D8",
"O. c #D8D8D8",
"+. c #DEDFDF",
"@. c #E0E1E1",
"#. c #E3E4E4",
"$. c #E6E7E7",
"%. c gray91",
"&. c gray93",
"*. c #F2F1F1",
"=. c #F5F6F6",
"-. c #F8F8F8",
";. c gray99",
":. c #FDFDFD",
/* pixels */
"< < < < < < < < < < < < < < < < < < < < < < < < & & < < < < < < < < < < < < < < < < < < < < < < < < ",
"< < < < < < < < < < < < < < < < < < < & $ @ ; , 4 4 , : @ $ & < < < < < < < < < < < < < < < < < < < ",
"< < < < < < < < < < < < < < < < < & . 3 F T E W W W W E R H 5 @ $ < < < < < < < < < < < < < < < < < ",
"< < < < < < < < < < < < < < < < . 3 T W W W W W W W W W W W W R 6 X & < < < < < < < < < < < < < < < ",
"< < < < < < < < < < < < < < & O F W W W W W W W W W W W W W W W W U : $ < < < < < < < < < < < < < < ",
"< < < < < < < < < < < < < & : Y W W W W W W W W W W W W W W W W W W R 3 $ < < < < < < < < < < < < < ",
"< < < < < < < < < < < < & - R W W W W W W W W W W W W W W W W W W W W W 3 & < < < < < < < < < < < < ",
"< < < < < < < < < < < & @ Y W W W W W W W W W W W W W W W W W W W W W W R : & < < < < < < < < < < < ",
"< < < < < < < < < < < $ D W W W W W W W W W W W W W W W W W W W W W W W W Y . < < < < < < < < < < < ",
"< < < < < < < < < < & , E W W W W W W W W W W W W W W W W W W W W W W W W W 8 $ < < < < < < < < < < ",
"< < < < < < < < < < . H W W W W J w e F R W W W W W W W W E H r r F E W W W R O < < < < < < < < < < ",
"< < < < < < < < < & - W W W U d [ +.$. .Z q W W W W W W J n { @.#.} B F W W W 5 & < < < < < < < < < ",
"< < < < < < < < < $ 8 W W Y A =.:.:.:.:.:.' r W W W W L ( -.:.:.:.:.:.` G W W H $ < < < < < < < < < ",
"< < < < < < < < < . U W W s | X.:.:.:.:.:.:._ U W W E c | O.:.:.:.:.:.:./ T W R @ < < < < < < < < < ",
"< < < < < < < < < X E W F * o o C :.:.:.:.:.$.g W W q * o o ) :.:.:.:.:.O.i W W : < < < < < < < < < ",
"< < < < < < < < < # W W 7       o | :.:.:.:.:.m Q W 4       o X.:.:.:.:.-.h Q W , & < < < < < < < < ",
"< < < < < < < < < : W W 5         ] :.:.:.:.:.N ! W 3         | :.:.:.:.:.k Q W 4 & < < < < < < < < ",
"< < < < < < < < < : W W 0       = $.:.:.:.:.-.j W W 7       1 &.:.:.:.:.*.f W W 4 & < < < < < < < < ",
"< < < < < < < < < : W W T 2 b V X.:.:.:.:.:. .P W W I x v V O.:.:.:.:.:.{ K W W 4 & < < < < < < < < ",
"< < < < < < < < < : W W W t  .:.:.:.:.:.:.*.l E W W W u X.:.:.:.:.:.:.%.h E W W 4 & < < < < < < < < ",
"< < < < < < < < < : W W W E y { =.:.:.-.o.s T W W W W E p | =.:.:.-...a R W W W 4 & < < < < < < < < ",
"< < < < < < < < < : W W W W W D j S ^ M t E W W W W W W W D z ~ ^ m r E W W W W 4 & < < < < < < < < ",
"< < < < < < < < < : W W W W W W W E R E W W W W W W W W W W W E R W W W W W W W 4 & < < < < < < < < ",
"< < < < < < < < < : W W W W W W W W W W W W W W W W W W W W W W W W W W W W W W 4 & < < < < < < < < ",
"< < < < < < < < < : W W W W W W W W W W W W W W W W W W W W W W W W W W W W W W 4 & < < < < < < < < ",
"< < < < < < < < < : W W W W W W W W W W W W W W W W W W W W W W W W W W W W W W 4 & < < < < < < < < ",
"< < < < < < < < < : W W W W W W W W W W W W W W W W W W W W W W W W W W W W W W 4 & < < < < < < < < ",
"< < < < < < < < < : W W W W W W W W W W W W W W W W W W W W W W W W W W W W W W 4 & < < < < < < < < ",
"< < < < < < < < < : W W W W W W W W W W W W W W W W W W W W W W W W W W W W W W 4 & < < < < < < < < ",
"< < < < < < < < < : W W W W W W W W W W W W W W W W W W W W W W W W W W W W W W 4 & < < < < < < < < ",
"< < < < < < < < < : W W W W W W W W W W W W W W W W W W W W W W W W W W W W W W 4 & < < < < < < < < ",
"< < < < < < < < < : W W W W W W W W W W W W W W W W W W W W W W W W W W W W W W 4 & < < < < < < < < ",
"< < < < < < < < < : W W W W W W W W W W W W W W W W W W W W W W W W W W W W W W 4 & < < < < < < < < ",
"< < < < < < < < < : W W W W W W W W W W W W W W W W W W W W W W W W W W W W W W 4 & < < < < < < < < ",
"< < < < < < < < < : W W W W W W W W W W W W W W W W W W W W W W W W W W W W W W 4 & < < < < < < < < ",
"< < < < < < < < < : W W W W W W W W W W W W W W W W W W W W W W W W W W W W W W 4 & < < < < < < < < ",
"< < < < < < < < < : W W W W W W W W W W W W W W W W W W W W W W W W W W W W W W 4 & < < < < < < < < ",
"< < < < < < < < < : W W W W W W W W W W W W W W W W W W W W W W W W W W W W W W 4 & < < < < < < < < ",
"< < < < < < < < < : W W W W W W W W W W W W W W W W W W W W W W W W W W W W W W 4 & < < < < < < < < ",
"< < < < < < < < < : W W W W W W W W W W W W W W W W W W W W W W W W W W W W W W 4 & < < < < < < < < ",
"< < < < < < < < < : W W W W W W W W W W W W W W W W W W W W W W W W W W W W W W 4 & < < < < < < < < ",
"< < < < < < < < < : W W W W W W W W W W W W W W W W W W W W W W W W W W W W W W 4 & < < < < < < < < ",
"< < < < < < < < < : W W W W W W W W W W W W W W W W W W W W W W W W W W W W W W 4 & < < < < < < < < ",
"< < < < < < < < < : W W W W W W W W W W W W W W W W W W W W W W W W W W W W W W 4 & < < < < < < < < ",
"< < < < < < < < < : W W W E I U E W W W W W W R H H R W W W W W W R F D Y W W W 4 & < < < < < < < < ",
"< < < < < < < < < : W W H + % X : Y W W W W J # $ $ @ D W W W W J + $ $ X 8 W W 4 & < < < < < < < < ",
"< < < < < < < < < : W T @ < < < & : E W W E O & < < < X Y W W E O & < < < . J W 4 & < < < < < < < < ",
"< < < < < < < < < : W D $ < < < < . I W W F $ < < < < $ 9 W W H $ < < < < & 5 W 4 & < < < < < < < < ",
"< < < < < < < < < . q > & < < < < & + q 0 O & < < < < < @ 0 q + & < < < < < O q O < < < < < < < < < ",
"< < < < < < < < < & $ & < < < < < < & $ $ & < < < < < < < $ $ & < < < < < < & $ & < < < < < < < < < "
};
