/* XPM */
static char *dd2004d0a1b24430bfcbe7af7b22c3d3NepVdpRGdvocrsVk[] = {
/* columns rows colors chars-per-pixel */
"50 50 126 2 ",
"   c #010101",
".  c #04000D",
"X  c #0B000B",
"o  c #0B0B0B",
"O  c #150007",
"+  c #1B0007",
"@  c #13000A",
"#  c #1C0009",
"$  c #020014",
"%  c #080010",
"&  c #01001C",
"*  c #121514",
"=  c #1E1E1E",
"-  c #220107",
";  c #25010A",
":  c #2B010B",
">  c #300109",
",  c #3C010A",
"<  c #010022",
"1  c gray18",
"2  c gray23",
"3  c #45020B",
"4  c #4C020B",
"5  c #56020D",
"6  c #5B030D",
"7  c #63030E",
"8  c #6A030F",
"9  c #6E0310",
"0  c #720310",
"q  c #7C0412",
"w  c #7B0B17",
"e  c #770E18",
"r  c #790D19",
"t  c #74131D",
"y  c #651922",
"u  c #6B1D25",
"i  c #7A1721",
"p  c #5E2228",
"a  c #572E33",
"s  c #573A3C",
"d  c #5F3B3E",
"f  c #6D262E",
"g  c #712029",
"h  c #673137",
"j  c #6A353A",
"k  c #653C3E",
"l  c #673F43",
"z  c #6B3D42",
"x  c #434645",
"c  c #5D4A4C",
"v  c gray33",
"b  c #585858",
"n  c #64474A",
"m  c #6D464A",
"M  c #714A4E",
"N  c #6A5151",
"B  c #6C5658",
"V  c #646464",
"C  c gray42",
"Z  c #736364",
"A  c #776769",
"S  c #7F696B",
"D  c #840514",
"F  c #8C0514",
"G  c #860B19",
"H  c #940415",
"J  c #9A0516",
"K  c #930A19",
"L  c #9E0819",
"P  c #85101C",
"I  c #A20517",
"U  c #A50518",
"Y  c #AB0519",
"T  c #B2051A",
"R  c #BC061B",
"E  c #C4061C",
"W  c #CC071E",
"Q  c #D0071F",
"!  c #D0081F",
"~  c #806C6D",
"^  c #827172",
"/  c #847778",
"(  c #827879",
")  c #808080",
"_  c #938C8D",
"`  c #9A9797",
"'  c #A8A7A7",
"]  c #ACACAC",
"[  c #B0AFAF",
"{  c #B4B5B5",
"}  c #BEBFBE",
"|  c #C2C1C1",
" . c gray76",
".. c #C2C3C3",
"X. c gray77",
"o. c #C4C5C5",
"O. c #C5C6C6",
"+. c #CECFCF",
"@. c #D0D0D0",
"#. c #D2D2D2",
"$. c LightGray",
"%. c #D7D8D8",
"&. c #D8D8D8",
"*. c #D9DADA",
"=. c gray86",
"-. c #DEDFDF",
";. c #E0E1E1",
":. c #E3E4E4",
">. c #E4E4E4",
",. c #E4E5E5",
"<. c #E6E7E7",
"1. c gray91",
"2. c gray93",
"3. c gray94",
"4. c #F2F1F1",
"5. c #F5F6F6",
"6. c #F6F6F6",
"7. c gray97",
"8. c #F8F8F8",
"9. c #F9F9F9",
"0. c gray98",
"q. c #FBFBFB",
"w. c gray99",
"e. c #FDFDFD",
"r. c #FEFEFE",
"t. c white",
/* pixels */
"< < < < < < < < < < < < < < < < < < < < < < < < & & < < < < < < < < < < < < < < < < < < < < < < < < ",
"< < < < < < < < < < < < < < < < < < < & $ @ ; , 4 4 , ; @ $ & < < < < < < < < < < < < < < < < < < < ",
"< < < < < < < < < < < < < < < < < $ @ 5 J R E W W W W E T F 3 X & < < < < < < < < < < < < < < < < < ",
"< < < < < < < < < < < < < < < & X 6 R W W W W W W W W W W W W T 3 . < < < < < < < < < < < < < < < < ",
"< < < < < < < < < < < < < < $ : U W W W W W W W W W W W W W W W W F @ & < < < < < < < < < < < < < < ",
"< < < < < < < < < < < < < $ 3 R W W W W W W W W W W W W W W W W W W Y ; & < < < < < < < < < < < < < ",
"< < < < < < < < < < < < & 3 W W W W W W W W W W W W W W W W W W W W W R - & < < < < < < < < < < < < ",
"< < < < < < < < < < < & : R W W W W W W W W W W W W W W W W W W W W W W Y @ & < < < < < < < < < < < ",
"< < < < < < < < < < < X Y W W W W W W W W W W W W W W W W W W W W W W W W D $ < < < < < < < < < < < ",
"< < < < < < < < < < $ 8 W W W W W W W W W W W W W W W W W W W W W W W W W E , & < < < < < < < < < < ",
"< < < < < < < < < < @ R W W W E F r r J E W W W W W W W W R F e w J W W W W J . < < < < < < < < < < ",
"< < < < < < < < < & 5 W W W F B } :.;.{ n J W W W W W W q Z X.,.-.[ d U W W W - & < < < < < < < < < ",
"< < < < < < < < < $ H W W G ` r.r.r.r.r.q.( L W W W W r ' r.r.r.r.r.7.A Y W W 8 $ < < < < < < < < < ",
"< < < < < < < < < @ R W T / q.r.r.r.r.r.*...c E W W U _ r.r.r.r.r.r.$...s W W U . < < < < < < < < < ",
"< < < < < < < < < ; W W i *.r.r.r.r.r.) o o * q W W g ,.r.r.r.r.r.C o o * F W E X < < < < < < < < < ",
"< < < < < < < < & , W Q h q.r.r.r.r.$.o       4 W Q m r.r.r.r.r...o       7 W W # < < < < < < < < < ",
"< < < < < < < < & 4 W Q k r.r.r.r.r...        3 W ! N r.r.r.r.r.]         5 W W ; < < < < < < < < < ",
"< < < < < < < < & 4 W W f 4.r.r.r.r.2.1       7 W W j q.r.r.r.r.,.=       0 W W : < < < < < < < < < ",
"< < < < < < < < & 4 W W K { r.r.r.r.r.*.V v x I W W P X.r.r.r.r.r.$.V b 2 T W W : < < < < < < < < < ",
"< < < < < < < < & 4 W W E h 1.r.r.r.r.r.r.$.u W W W E l 4.r.r.r.r.r.r.X.t W W W : < < < < < < < < < ",
"< < < < < < < < & 4 W W W R a +.q.r.r.7...p E W W W W T s %.q.r.r.7.{ y E W W W : < < < < < < < < < ",
"< < < < < < < < & 4 W W W W E r m ^ ~ z D W W W W W W W E t M ^ S j D W W W W W : < < < < < < < < < ",
"< < < < < < < < & 4 W W W W W W W R E W W W W W W W W W W W E R E W W W W W W W : < < < < < < < < < ",
"< < < < < < < < & 4 W W W W W W W W W W W W W W W W W W W W W W W W W W W W W W : < < < < < < < < < ",
"< < < < < < < < & 4 W W W W W W W W W W W W W W W W W W W W W W W W W W W W W W : < < < < < < < < < ",
"< < < < < < < < & 4 W W W W W W W W W W W W W W W W W W W W W W W W W W W W W W : < < < < < < < < < ",
"< < < < < < < < & 4 W W W W W W W W W W W W W W W W W W W W W W W W W W W W W W : < < < < < < < < < ",
"< < < < < < < < & 4 W W W W W W W W W W W W W W W W W W W W W W W W W W W W W W : < < < < < < < < < ",
"< < < < < < < < & 4 W W W W W W W W W W W W W W W W W W W W W W W W W W W W W W : < < < < < < < < < ",
"< < < < < < < < & 4 W W W W W W W W W W W W W W W W W W W W W W W W W W W W W W : < < < < < < < < < ",
"< < < < < < < < & 4 W W W W W W W W W W W W W W W W W W W W W W W W W W W W W W : < < < < < < < < < ",
"< < < < < < < < & 4 W W W W W W W W W W W W W W W W W W W W W W W W W W W W W W : < < < < < < < < < ",
"< < < < < < < < & 4 W W W W W W W W W W W W W W W W W W W W W W W W W W W W W W : < < < < < < < < < ",
"< < < < < < < < & 4 W W W W W W W W W W W W W W W W W W W W W W W W W W W W W W : < < < < < < < < < ",
"< < < < < < < < & 4 W W W W W W W W W W W W W W W W W W W W W W W W W W W W W W : < < < < < < < < < ",
"< < < < < < < < & 4 W W W W W W W W W W W W W W W W W W W W W W W W W W W W W W : < < < < < < < < < ",
"< < < < < < < < & 4 W W W W W W W W W W W W W W W W W W W W W W W W W W W W W W : < < < < < < < < < ",
"< < < < < < < < & 4 W W W W W W W W W W W W W W W W W W W W W W W W W W W W W W : < < < < < < < < < ",
"< < < < < < < < & 4 W W W W W W W W W W W W W W W W W W W W W W W W W W W W W W : < < < < < < < < < ",
"< < < < < < < < & 4 W W W W W W W W W W W W W W W W W W W W W W W W W W W W W W : < < < < < < < < < ",
"< < < < < < < < & 4 W W W W W W W W W W W W W W W W W W W W W W W W W W W W W W : < < < < < < < < < ",
"< < < < < < < < & 4 W W W W W W W W W W W W W W W W W W W W W W W W W W W W W W : < < < < < < < < < ",
"< < < < < < < < & 4 W W W W W W W W W W W W W W W W W W W W W W W W W W W W W W : < < < < < < < < < ",
"< < < < < < < < & 4 W W W W W W W W W W W W W W W W W W W W W W W W W W W W W W : < < < < < < < < < ",
"< < < < < < < < & 4 W W W Y D F R W W W W W W R H J R W W W W W W E U I E W W W : < < < < < < < < < ",
"< < < < < < < < & 4 W W 8 X $ $ + J W W W W D @ $ $ # J W W W W Y ; X % + H W W : < < < < < < < < < ",
"< < < < < < < < & 4 W J . < < < & O E W W Y X < < < & @ E W W E ; & < < < @ T W : < < < < < < < < < ",
"< < < < < < < < & 4 W 5 & < < < < $ H W W 9 $ < < < < $ F W W U . < < < < $ D W ; < < < < < < < < < ",
"< < < < < < < < < O q O < < < < < & + q 0 @ < < < < < & O 0 q + & < < < < & > q . < < < < < < < < < ",
"< < < < < < < < < & $ & < < < < < < & $ $ < < < < < < < & $ $ & < < < < < < & $ & < < < < < < < < < "
};
