/* XPM */
static char *result[] = {
/* columns rows colors chars-per-pixel */
"50 50 136 2 ",
"   c #010022",
".  c #080724",
"X  c #0B0A24",
"o  c #0D0C28",
"O  c #100F24",
"+  c #110F28",
"@  c #141326",
"#  c #1B1A27",
"$  c #16152A",
"%  c #181729",
"&  c #1C1B2A",
"*  c #201E24",
"=  c #222126",
"-  c #2C2B26",
";  c #25242A",
":  c #28262A",
">  c #2C2B2B",
",  c #312F26",
"<  c #36352D",
"1  c #38372C",
"2  c #3C3A2D",
"3  c #2E2D31",
"4  c #363434",
"5  c #3C3A35",
"6  c #4D4A2A",
"7  c #514F2F",
"8  c #585724",
"9  c #53522E",
"0  c #5D5C2B",
"q  c #474633",
"w  c #4E4C32",
"e  c #524F36",
"r  c #555332",
"t  c #585534",
"y  c #5B5A33",
"u  c #605F2B",
"i  c #615E36",
"p  c #696726",
"a  c #64632C",
"s  c #6F6D2E",
"d  c #716E2B",
"f  c #7C772E",
"g  c #79792B",
"h  c #636135",
"j  c #6D6936",
"k  c #6A693B",
"l  c #716D35",
"z  c #726E3A",
"x  c #767536",
"c  c #74703B",
"v  c #7B7738",
"b  c #7B7A3D",
"n  c #837F32",
"m  c #8F8A2F",
"M  c #928E2D",
"N  c #949027",
"B  c #94932C",
"V  c #9B9A2B",
"C  c #858433",
"Z  c #8D8C34",
"A  c #938F34",
"S  c #969636",
"D  c #999535",
"F  c #9D9A35",
"G  c #95953A",
"H  c #9A983B",
"J  c #A09D27",
"K  c #A39E3B",
"L  c #ABA825",
"P  c #AAA52D",
"I  c #ACA92B",
"U  c #B3AE29",
"Y  c #BEB727",
"T  c #BCBC25",
"R  c #B4B229",
"E  c #BAB52C",
"W  c #B9B82F",
"Q  c #A2A232",
"!  c #B3AD32",
"~  c #B0AA3F",
"^  c #B9B731",
"/  c #BFBF33",
"(  c #C5BE1F",
")  c #C1BE29",
"_  c #C0BB33",
"`  c #C9C21F",
"'  c #DDD91D",
"]  c #E2DE1C",
"[  c #F7EC06",
"{  c #F0E70F",
"}  c #F6EC0E",
"|  c #F9EC0D",
" . c #F5F10E",
".. c #FAF10D",
"X. c #EDE617",
"o. c #ECE915",
"O. c #E5E31C",
"+. c #EAE31C",
"@. c #F5E717",
"#. c #F7EC14",
"$. c #F9EB14",
"%. c #F4E61B",
"&. c #F8E71C",
"*. c #F5EA1A",
"=. c #F9EA1A",
"-. c #F7F015",
";. c #F9F113",
":. c #F5F11F",
">. c #F9F01E",
",. c #CBC521",
"<. c #CCC923",
"1. c #C6C22D",
"2. c #CEC72B",
"3. c #CDCA2B",
"4. c #D2CB2B",
"5. c #D7D220",
"6. c #DCD921",
"7. c #DDD52A",
"8. c #DED92B",
"9. c #CEC537",
"0. c #CBC439",
"q. c #D4CF3D",
"w. c #D4D031",
"e. c #DDD830",
"r. c #E4DC26",
"t. c #E8DE25",
"y. c #E2D72D",
"u. c #E4DD29",
"i. c #E1D730",
"p. c #E7E125",
"a. c #EBE223",
"s. c #EEEB20",
"d. c #EEE82D",
"f. c #F5EC22",
"g. c #F9EB22",
"h. c #828142",
/* pixels */
"                                                                                                    ",
"                                                                                                    ",
"                                                                                                    ",
"                              . . @ 4 e i j z z z z h e 5 % .                                       ",
"                        . + $ 5 k H _ i.t.t.t.+.a.] t.y.9.K c 5 $ .                                 ",
"                      . $ t h._ u.#.| | $.$.#.#.$.@.$.$.| #.p.0.H t * .                             ",
"                    . 3 h.q.f.$.} } @.$.$.@.#.#.$.@.$.$.@.$.| -.:.e.G 1 o                           ",
"                  + w ~ d.=.$.$.#.#.$.$.$.@.#.#.#.#.#.$.#.#.$.$.} ;.:./ h &                         ",
"                # j 2.g.$.| | $.$.$.$.$.#.#.#.-.#.#.#.$.$.$.$.=.$.$.$.#.6.C :                       ",
"              & b 7.#.=.$.$.$.$.$.=.=.$.$.#.#.$.#.#.#.#.| $.=.$.=.=.&.=. .O.S 3                     ",
"            o v 8.*.#.#.*.#.$.$.$.$.$.#.#.#.#.#.#.#.#.#.| $.$.$.#.$.=.=.=.#.p.Q >                   ",
"          . e 4.#.#.} } *.$.$.#.$.$.#.#.#.#.#.#.#.#.#.#.#.#...$.#. .#.#.#.#.-.O.C &                 ",
"          2 E @.#.#.$.#.} #.#.#.;.#.#.#.#.#.#.#.-.#.#.#.#.#.#.#.-.#.#.#.#.#.#.*.y.j o               ",
"        % Z X.#.#.#.$.$.#.#.#.#.#.#.#.#.#.#.$.#.#.$.#.#.#.#.#.#.#.#.#.#.#.#.#.#.*._ 1 .             ",
"      . 9 w.f.=.#.$.$.$.$.$.$.#.#.#.#.#.$.-.#.#.#.#.#.#.#.#.;.#.#.#.#.#.#.#.#.#.#.s.Z %             ",
"      # V =.=.=.#.} | $.$.$.#.#.#.#.#.#.#.#.#.#.$.#.#.#.#.#.#.#.#.#.#.#.#.#.#.@.#...3.2 .           ",
"      % f 5.#.=.$.$.#.$.$.#.#.#.$.#.#.#.#.#.#.#.#.;.#.#.#.#.#.$.#.#.$.#.#.#.#.#.=.[ %.C %           ",
"        # 9 S 4.a.#.| $.$.#.#.#.#.;.#.#.#.#.#.#.#.#.#.#.#.#.#.#.#.#.#.#.$.-.#.#.#.#...2.2 .         ",
"          . & 2 l ! r.=.$.| #.#.#.*.#.$.#.#.#.#.#.$.#.#.#.#.#.#.-.#.#.#.#.#.#.#.#.#.[ a.j X         ",
"                O : y D 2.f.#.#.*.*.#.#.} #.#.#.#.$.$.#.-.$.#.#.$.#.#.#.#.#.#.$.#.#.} >.D %         ",
"                    X # 2 f ! 7.#.} *.o.*.#.| [  .#.=.$.#.$.#.#.#.#.#.#.#.$.#.#.#.} } -.! #         ",
"                    .   . O ; 9 B <.+.*.g.*.*.*.*.*.=.#.#.#.#.#.#.-.#.$.-.#.#.#.#.#.#.| ) <         ",
"                              . @ 2 f Y ' o.#.o.#.#.$.#.#.#.#.#.#.$.#.#.#.#.#.#.#. .$.| y.w .       ",
"                                    . : 0 V ,.o.} | $.#.#.-.#.$.#.#.#.$.#.#.#.#.} #.&.$.r.r .       ",
"                                  .       + 7 T } #.=.$.$.#.#.#.-.#.#.$.#.#.#.#.#.} &.$.r.9 .       ",
"                                        % q C 3.#.#.$.#.@.#.#.#.#.$.#.#.#.#.#.#.$.| $.| p.y .       ",
"                                  . : y F w.a.#.@.=.=.@.-.#.#.#.#.#.#.#.#.-.#.=.@.$.$.| r.r .       ",
"                      .     . o 4 x W 6.#.-.=.$.#.#.$.$.#.#.#.#.#.#.#.#.#.$.#.#.=.@.@.| 3.2         ",
"                  .     . ; r Z 1.O.| | $.$.&.f.*. .-.#.#.#.#.#.#.-.#.#.#.#.#.#.#.=.*...R =         ",
"                  . % < z P 6.%.-.| $.$.$.#.#.*.*.-.#.#.#.#.$.#.#.#.#.#.#.#.#.| #.*.@.;.I #         ",
"              @ : w Z 1.a.#.| $.#.=.@.$.#.#.#.} #.#.#.#.$.#.#.#.#.#.#.#.#.#.#.#.#.=.#.#.B @         ",
"          . > f ! 8.>...[ $.@.#.#.#.@.@.#.#.#.#.#.#.#.#.#.-.#.#.#.#.#.#.#.#.#.#.$.%.| r.9 .         ",
"      . * a ^ +.#.-.#.#.#.#.#.#.#.#.#.#.#.#.#.#.-.#.#.#.#.#.#.#.$.#.#.#.#.#.#.#.#.=.#.I ;           ",
"      X p 5.=.#.} #.#.#.#.*.#.#.#.#.;.#.#.#.#.#.$.#.#.#.$.#.-.#.#.#.$.#.#.#.#.#.#.| O.a X           ",
"      . 8 6.$.@.@.#.#.#.-.#.#.#.#.#.#.#.#.#.#.#.#.#.$.#.#.#.$.#.$.#.#.-.#.#.#.#.}  .R >             ",
"        = J %.$.#.=.#.#.#.#.#.#.#.#.#.#.#.#.#.$.$.-.#.#.#.#.#.-.#.#.#.#.#.#.#.#.#.' 0 X .           ",
"          0 6.#.$.#.@.#.#.#.#.#.#.#.#.#.#.#.#.#.#.#.#.#.#.#.#.#.#.#.#.#.#.#.#.@.@.V ;               ",
"          ; V X.#.=.#.} | #.#. .| #.-.#.#.#.#.#.#.#.$.#.-.#.#.#.-.=.=.-.} } #.*.R q                 ",
"            1 U +.*.&.g.#.| } #.#.#.#.#.#.#.#.#.#.#.#.#.$.#.#.$.#.#.*.&.=.#.#.<.8                   ",
"              1 I X.$.g.g.#.#.#.#.#.#.#.#.#.#.#.#.$.-.#.#.#.#.#.#.| #.=.$.#.<.a X                   ",
"                < L { | =.@.#.#.#.#.#.#.#.#.#.#.#.#.#.#.#.#.#.#.#.} | | } ` 0 .                     ",
"                  < N ] ;.#.@.#.#.#.#.#.#.#.#.#.#.#.#.#.#.#.#.#.@.} } X.L 6 .                       ",
"                    = a ) %.#.#.#.@.@.#.#.#.#.#.#.#.#.#.#.#.@.#.#.=.7.n > .                         ",
"                      X 2 m 4.X.;.#.| @.#.@.@.#.#.@.@.} } [ ;.*.t.! t #                             ",
"                        . # 1 s L ' %.%.=.| ;.| | ;.#.*.#.O.,.A t : .                               ",
"                            . X = 6 d M R ( ` ` ,.` ) D g u 1 % . . .                               ",
"                                  . . @ ; - , , , , : @ O .                                         ",
"                                                                                                    ",
"                                                                                                    ",
"                                                                                                    "
};
