/* XPM */
static char *result[] = {
/* columns rows colors chars-per-pixel */
"50 50 137 2 ",
"   c #010022",
".  c #080724",
"X  c #0C0B25",
"o  c #0E0D28",
"O  c #100F26",
"+  c #121226",
"@  c #181726",
"#  c #1D1C27",
"$  c #141329",
"%  c #1C1B29",
"&  c #252427",
"*  c #282627",
"=  c #25242C",
"-  c #29272B",
";  c #2D2B2B",
":  c #312F27",
">  c #322F2D",
",  c #353425",
"<  c #383625",
"1  c #34332C",
"2  c #38362D",
"3  c #3E3C2D",
"4  c #2E2E31",
"5  c #323031",
"6  c #3B3A32",
"7  c #413E2E",
"8  c #4F4D27",
"9  c #45442A",
"0  c #48452E",
"q  c #4C4B2E",
"w  c #54532B",
"e  c #5A5A2B",
"r  c #444332",
"t  c #4A4731",
"y  c #4D4A32",
"u  c #535233",
"i  c #565539",
"p  c #635F33",
"a  c #6E6F27",
"s  c #65612F",
"d  c #68652D",
"f  c #6D6B2C",
"g  c #7C7B25",
"h  c #73712E",
"j  c #78772B",
"k  c #666534",
"l  c #696535",
"z  c #6E6E33",
"x  c #6A6539",
"c  c #716C35",
"v  c #706F38",
"b  c #757233",
"n  c #7D7A32",
"m  c #7D7A3A",
"M  c #807D2D",
"N  c #8C8A2E",
"B  c #959127",
"V  c #969129",
"C  c #99942B",
"Z  c #9D9B2B",
"A  c #868532",
"S  c #8B8731",
"D  c #959333",
"F  c #9B9635",
"G  c #9D9B33",
"H  c #9F9A3C",
"J  c #A39D2E",
"K  c #A9A527",
"L  c #ADAE27",
"P  c #A3A02B",
"I  c #ACAA2B",
"U  c #B3AB2B",
"Y  c #B6B322",
"T  c #BCBA26",
"R  c #B3B12E",
"E  c #BBB32D",
"W  c #B8B82B",
"Q  c #A5A332",
"!  c #AAA433",
"~  c #ADAA36",
"^  c #B1AC35",
"/  c #B6B330",
"(  c #BBB332",
")  c #BCB935",
"_  c #C1BD24",
"`  c #C1BD2C",
"'  c #C1BB36",
"]  c #DDD41B",
"[  c #E1DA15",
"{  c #E5DD1C",
"}  c #E9E40F",
"|  c #F5EC0D",
" . c #F9EC0D",
".. c #F9F20E",
"X. c #EAE215",
"o. c #E7E01D",
"O. c #ECE41D",
"+. c #EEEC1C",
"@. c #F0E515",
"#. c #F9E715",
"$. c #F7EC14",
"%. c #F9EB14",
"&. c #F4E71A",
"*. c #F8E71A",
"=. c #F5EA1A",
"-. c #F9EA1A",
";. c #F7F116",
":. c #FBF113",
">. c #F7F119",
",. c #FCF11B",
"<. c #C7C427",
"1. c #CEC526",
"2. c #C4C32D",
"3. c #CCC92A",
"4. c #D4CC25",
"5. c #D4CD2C",
"6. c #D9CF2C",
"7. c #D6D125",
"8. c #DBD523",
"9. c #DAD820",
"0. c #D6D52A",
"q. c #DBD12C",
"w. c #DFDA28",
"e. c #CDC735",
"r. c #CFCA34",
"t. c #E3DC22",
"y. c #E8DD25",
"u. c #E8DD2B",
"i. c #E7DD30",
"p. c #E9E322",
"a. c #EEE824",
"s. c #F1E622",
"d. c #F9E621",
"f. c #F3EB21",
"g. c #F9EB22",
"h. c #F1E728",
"j. c #AAA740",
/* pixels */
"                                                                                                    ",
"                                                                                                    ",
"                                                                                                    ",
"                                                                    .                               ",
"                          . X , < .                             @ w e # .                           ",
"                        O , g T K :                           . w 3.7.G 0 +                         ",
"                    . = M _ p.$.o.A O                         & D &.-.h.3.b = .                     ",
"                  . > Z { %.*.%.$.<.0 .                     . q q.-.-.-.$.9.F 3 .                   ",
"                . : Z o.$.%.-.$.$.O.S X                     @ n s.$.-.%.%.| O.~ 7 .                 ",
"              . : Z o.&.$.$.%.%.| &.( - .                   1 / $.#.%.%.%.%.$.a.~ 6 .               ",
"              # B } #.=.$.$.$.$.$.$.w.k .                 + k t. .%.%.$.%.| #.$.s.F 4               ",
"            + h [ %.d.=.$.$.$.$.$.$.$.G %                 - Q -. .%.%.%.%.%.| $.#.u.m %             ",
"          . 0 <.| =.g.$.$.$.$.$.$.@.| 3.t .             . q 5.$.%.%.%.%.$.$.$.-.#.-.r.i o           ",
"          # J O.$.&.=.| $.| :.$.$.$.$.O.A X             % S f. .$.$.%.%.$.$.-.%.%. .f.j.5           ",
"          w 8.$.@.$.$. .$.$.$.$.$.$.#.| ` 1           . 1 W :.$.$.$.$.$.$.$.%.%. .%.$.i.x o         ",
"        X N O.#.$.$.$.$.$.$.$.$.$.$.$.#.{ l .         X s y.$.$.$.$.$.$.$. .%.%.%.$.$.g.H =         ",
"        1 T #.&.$.$.$.$.$.$.$.$.$.$.$.$.$.Q %         & P :.$.=.$.$.$.$.$.$. .%.%.%.$.%.e.r         ",
"        a [ $.$.$.$.$.$.$.$.$.$.$.$.$.$. .7.u       . q 9...=.=.$.$.$.$.$.$.%.%.-.$.%...p.v $       ",
"      X V @.$.$.$.$.$.$.$.$.$.$.$.$.=.$. .&.D O   . @ N =.$.$.=.:.$.$.%.$.$.$.%.-.%.%. .-.H =       ",
"      # U *.$.$.$.$.$.-.$.:.$.$.$.$.$.=.$. .2.6     < 1.>.&.$.$.-.$.$.$.$.$.$.$.%.%. .%.,.' 1       ",
"      3 1.-.%.$.$.$.$.$.$.$.$.$.$.$.$.-.-. .O.m . O a +.=.$.| $.$.$.$.$.$.$.$.$.%.%.$.$.$.r.3       ",
"      8 ] $.%.%.$.$.$.$.$.$.$.$.$.$.%.%.-.%.;.) 4 & L ;.f.$.$.$.$.$.$.$.$.$.$.$.%.%.$.$.%.5.0 .     ",
"      w ] %.$.$.:.$.$.$.$.$.$.$.$.$.$.%.%.-.-.w.z e ] >.%. .$.$.$.$.:.$.$.$.$.$.#.$.$.$...q.y .     ",
"      w [ %.$.$.$.$.$.$.:.$.$.$.$.$.$.$.=.&.$.&.2._ ;.&.$. .$.$.$.$.$.$.$.$.$.$.$.$.$.$. .q.y .     ",
"      w ] $.$.$.$.$.$.$.$.$.$.$.$.$.$.$.=.$.%.-.@... .=.$.$.$.$.:.$.$.$.$.$.$.$.$.$.#.&.$.q.y .     ",
"      w ]  .$.$.$.$.$.$.:.$.$.-.$.$.$.$.;.$.-.-.$.;. .$.=.$.$.$.$.$.$.$.$.$.$.$.$.$.$.$.%.6.t       ",
"      9 4.%.$.$.$.$.$.$.$.$.$.$.$.$.$.$.| | -.%.#.$.$.$.-.-.$.%.$.$.$.$.$.%.$.$.$.$.%.$.:.5.7 .     ",
"      & E %.$. .$.$.$.$.$.$.$.$.$.$.;.@.;.$.$.$.$.$.$.$.$.$.$.$.$.$.%.$.$.$.-.:.$. .%.%.-.' 5       ",
"      X Z #.| $.$.$.$.$.$.$.$.$.$.$.$.$.$.$.$.$.$.$.$.$.$.$.$.$.$.$.$.$.$.$.$.%.$.%.$. .-.Q =       ",
"        g X.| #.$.$.$.$.$.$.$.$.$.$.$.;.$.$.$.$.$.$.$.$.$.$.$.:.$.$.$.$.$.$. .%.$.%.$. .a.b $       ",
"      . y 7.$.$.$.$.$.$.$.$.$.$.$.$.$.$.$.$.$.$.$.$.$.$.$.$.$.$.$.$.$.$.$.$.%.%.-.%.%.:.r.r .       ",
"        % ! +.$.$.$.$.:.$.$.$.$.$.$.$.$.$.$.$.$.-.:.$.$.$.$.$.$.$.:.$.$.%.$.%.%.%.%.%.-.H &         ",
"          c y.$.$.$.$.$.$.$.$.$.$.$.$.$.$.$.$.$.$.$.$.$.$.$.$.%.$.$.$.$.$.$.%.%.-.$.:.u.l O         ",
"        . 1 ( $.| $.$.$.$.$.$.$.$.$.$.$.%.$.$.$.$.$.$.$.$.%.$.$.:.$.$.$.$.$.| -.-. .>.~ 5           ",
"          . p 4.|  .-.=.$.$.$.$.$.$.$.$.$.$.$.$.$.$.%.$.$.$.$.%.$.$.$.$.$.$.%.f.*.$.0.k X           ",
"            @ A [  .*.-.$.$.$.$.$.$.:.$.$.$.:.$.:.$.$.$.$.$.$.$.$.$.$.$.$.$.%.-.$.O.A %             ",
"              ; P | $.#.| $.$.$.$.$.$.$.$.$.$.$.$.$.$.$.$.$.$.$.$.$.$.$.$.%.$.$.| I 1 .             ",
"              . 9 Y $.#.$.$.$.$.$.$.$.$.$.$.$.$.$.$.$.$.$.$.$.$.-.$.$.$.$.$.=.+.W y X               ",
"                . 9 T $.$.$.$.$.$.$.$.$.$.$.$.$.$.$.$.$.$.$.$.$.:.$.$.$.$.#.;.` u o                 ",
"                . . 0 I O.$.%.$.$.$.$. .$.-.=.$.-.$.$.$.$.:.$.$.$.$.$.=.=.a.R w O                   ",
"                    . < C { $.| #.%.-.$.=.-.-.%.$.| $.| #.%.%.$.$.$.$.:.p.G 9 X                     ",
"                        ; a T @.:.%.%.=.*.=.%.$.$.$.$.#.| | |  .| :.+.2.v - X                       ",
"                        . + , j T O.:...$.$.%.%.#.*.*.%. .:. .:.O.T m 3 $                           ",
"                              + > f U ] o.&.-.,.,.,.,.,.s.p.5.^ b 2 $ .                             ",
"                                . X * 9 w d A G P G G D a w 7 & $ .                                 ",
"                                      . . + @ # & % # % + . .   .                                   ",
"                                        . .               .                                         ",
"                                                                                                    ",
"                                                                                                    ",
"                                                                                                    "
};
