/* XPM */
static char *result[] = {
/* columns rows colors chars-per-pixel */
"50 50 147 2 ",
"   c #010022",
".  c #080726",
"X  c #0B0A25",
"o  c #0D0C28",
"O  c #100F25",
"+  c #100F28",
"@  c #131225",
"#  c #1B1A26",
"$  c #141329",
"%  c #1C1B2A",
"&  c #242426",
"*  c #282727",
"=  c #292926",
"-  c #25232B",
";  c #2C2B2D",
":  c #363527",
">  c #3C3A25",
",  c #34332D",
"<  c #383729",
"1  c #3B3A2B",
"2  c #242431",
"3  c #2D2C32",
"4  c #302E34",
"5  c #343430",
"6  c #3D3C32",
"7  c #4D4B2D",
"8  c #524F2F",
"9  c #595727",
"0  c #55532C",
"q  c #5B592C",
"w  c #454431",
"e  c #4B4834",
"r  c #444339",
"t  c #504E32",
"y  c #535333",
"u  c #5A5734",
"i  c #5B5B32",
"p  c #59573D",
"a  c #5C593C",
"s  c #6F6D24",
"d  c #65642E",
"f  c #6A672D",
"g  c #6E6C2C",
"h  c #716E2E",
"j  c #717227",
"k  c #78752A",
"l  c #7C7B2E",
"z  c #676636",
"x  c #6D6A35",
"c  c #6A653C",
"v  c #706B32",
"b  c #6E7036",
"n  c #7B7A35",
"m  c #77733A",
"M  c #7A763B",
"N  c #7D7C39",
"B  c #746F41",
"V  c #817E2C",
"C  c #807D37",
"Z  c #8A8625",
"A  c #8D8925",
"S  c #84852D",
"D  c #8B872A",
"F  c #8E8B2E",
"G  c #918A2D",
"H  c #95922B",
"J  c #9F9C2A",
"K  c #868233",
"L  c #8A8636",
"P  c #8D8A33",
"I  c #848138",
"U  c #8D8B3D",
"Y  c #948F37",
"T  c #959433",
"R  c #9D9D35",
"E  c #95913A",
"W  c #9A943A",
"Q  c #A29F35",
"!  c #AEAF27",
"~  c #A7A52B",
"^  c #ABA62B",
"/  c #ADA928",
"(  c #BEB926",
")  c #B9B529",
"_  c #BEB92B",
"`  c #A5A432",
"'  c #AAA533",
"]  c #AAAD37",
"[  c #B1AA34",
"{  c #B7AE39",
"}  c #BAB534",
"|  c #BEBA34",
" . c #BBB23D",
".. c #C0BC23",
"X. c #C3BB2C",
"o. c #C5BE3A",
"O. c #D7D11C",
"+. c #DCDA1D",
"@. c #E2DB1E",
"#. c #F6EC0D",
"$. c #F9EC0E",
"%. c #F7F20C",
"&. c #FCF10A",
"*. c #E6E314",
"=. c #E8E116",
"-. c #EFEB15",
";. c #E6E319",
":. c #ECE41D",
">. c #EFE81A",
",. c #F2E617",
"<. c #F8E716",
"1. c #F7EC14",
"2. c #F9EB14",
"3. c #F3E61B",
"4. c #F9E719",
"5. c #F6EB1A",
"6. c #F9EA1A",
"7. c #F7F115",
"8. c #FCF215",
"9. c #F7F11B",
"0. c #FBF11C",
"q. c #C4C323",
"w. c #CEC927",
"e. c #C6C32B",
"r. c #C9C429",
"t. c #CBCA2E",
"y. c #D0C725",
"u. c #D3CB25",
"i. c #D4CC2B",
"p. c #D6D025",
"a. c #DAD425",
"s. c #DFDA24",
"d. c #DFDA2B",
"f. c #DAD233",
"g. c #E2DB24",
"h. c #E9DE25",
"j. c #E2DE29",
"k. c #E0DA34",
"l. c #E7E224",
"z. c #ECE424",
"x. c #E7E02B",
"c. c #EDE428",
"v. c #F3E720",
"b. c #F9E723",
"n. c #F4EB20",
"m. c #FCEE23",
"M. c #A2A043",
/* pixels */
"                                                                                                    ",
"                                                                                                    ",
"                                            X @ # # # # # @ .                                       ",
"                                    . # = 1 q S A A A Z Z k 0 : & @                                 ",
"                                @ & t G ( u.h.6.8.8.8.6.8.6.g.y./ s < # X .                         ",
"                            X ; v [ d.5.&.&.$.2.2.2.2.1.#.2.2.2.8.:.r.T 8 % .                       ",
"                          @ 7 ' c.7.7.1.1.1.1.#.2.1.1.1.1.1.2.2.,.1.2.7.g.D < X                     ",
"                        # g X.1.1.1.1.1.1.1.1.1.1.1.1.1.1.1.2.2.1.1.1.1.7.3.) 0 @ .                 ",
"                      = D @.$.$.1.1.1.1.7.2.1.1.1.2.1.2.1.1.1.1.1.1.1.1.,.#.&.O.s #                 ",
"                    = H =.$.2.2.#.1.1.1.1.1.1.1.1.1.1.1.1.7.2.1.1.1.1.1.5.b.4.&.+.h # .             ",
"                  % H :.2.2.6.5.1.1.1.1.1.1.2.1.1.1.2.1.2.1.1.1.2.1.1.1.1.6.b.5.5.a.h #             ",
"                @ S @.#.1.1.5.1.1.1.2.1.1.1.1.1.1.1.1.1.1.1.1.1.1.1.%.1.#.#.5.6.5.7.a.d @           ",
"              X f a.5.1.1.#.1.1.1.1.1.1.2.1.1.1.1.1.1.1.1.7.1.1.1.1.1.1.1.1.1.1.6.1.2.e.>   .       ",
"              1 ( 2.<.1.1.1.1.1.1.1.1.1.1.7.1.1.1.2.7.1.5.2.1.1.1.1.2.7.#.1.1.2.2.2.2.v.k @         ",
"            X S *.1.1.1.1.1.1.1.1.1.1.1.5.2.1.1.1.1.1.1.1.1.1.2.2.1.1.1.1.1.1.1.2.2.4.0...> .       ",
"            w q.#.#.1.1.1.1.1.1.1.7.1.1.1.1.1.1.2.1.1.2.1.1.1.1.1.1.1.1.2.1.1.1.1.1.2.2.-.s X       ",
"          X V *.2.1.1.1.5.1.1.2.1.1.1.2.1.1.1.1.1.1.1.1.1.1.1.1.1.2.1.1.5.1.1.1.1.#.5.;.( 9 @       ",
"      .   , _ 6.2.2.2.1.2.1.1.1.1.1.1.1.1.1.1.1.1.1.1.1.1.2.1.1.1.1.1.1.1.1.#.1.5.;.w.T 1 .         ",
"          h @.2.6.2.1.1.7.1.1.1.1.1.1.1.1.1.1.1.1.1.1.1.2.2.1.5.5.1.1.1.1.$.1.s.} Y t O             ",
"        $ J ,.2.5.1.1.2.1.1.1.1.1.2.1.1.1.1.1.5.1.1.1.1.2.2.5.1.2.2.2.2.@.i.R z * .                 ",
"        % / 1.1.5.2.1.1.7.1.1.1.1.1.2.1.1.7.#.%.1.5.5.5.5.2.<.$.$.1.g...K e #                       ",
"    .   ; ) 1.2.5.5.1.1.1.1.1.2.1.7.1.5.1.1.1.1.7.5.5.5.2.$.$.<.p.' z , X     .                     ",
"        w w.2.<.5.6.1.2.2.1.1.1.2.1.1.2.1.1.1.6.5.1.2.5.1.l.e.T y # .                               ",
"        i a.2.2.1.5.1.1.1.1.1.1.1.1.1.1.1.1.2.6.6.1.-.d.} N 6 o                                     ",
"        q a.2.2.1.1.1.1.1.1.1.2.1.1.1.1.1.1.2.2.1.1.e.b 3 X                                         ",
"        i a.6.6.%.1.1.1.1.1.1.1.2.1.1.2.1.1.1.6.1.#...q = @ .                                       ",
"        u p.6.4.1.#.1.1.1.1.2.1.5.1.1.1.1.2.1.2.#.#.#.+.! j > # .                                   ",
"        t i.2.1.1.1.1.1.1.1.1.1.7.2.1.1.1.1.2.1.1.5.5.9.7.>.w.F 8 - O                               ",
"        5 _ 1.1.#.1.1.1.1.1.2.1.1.1.1.1.1.2.1.5.1.2.1.5.3.6.0.5.+.~ d , # .                         ",
"    .   % ^ 5.#.1.1.1.1.1.1.1.1.1.1.2.1.1.1.1.5.5.#.#.#.$.1.5.5.%.8.z.X.P 7 * @                     ",
"        O Y 3.#.1.1.1.1.1.2.7.1.2.1.1.1.1.1.1.1.2.6.1.#.#.%.7.1.3.5.$.8.0.p.' x , # .               ",
"          x g.$.1.2.1.1.1.1.1.1.1.1.1.1.1.2.1.1.2.1.5.5.1.1.1.5.5.1.5.1.2.2.0.l.| n 7 - .           ",
"          6 e.#.#.1.1.1.1.1.1.1.1.1.2.1.1.1.1.1.1.1.1.1.1.1.1.1.1.1.5.1.2.2.1.$.2.5.k.Q 0 % .       ",
"          X K =.1.1.1.1.1.1.1.1.1.1.1.1.2.1.1.1.1.2.1.1.1.1.2.1.1.1.2.1.6.2.2.1.1.2.2.2.j.l #       ",
"        .   w r.1.5.1.1.2.1.1.1.1.1.1.1.1.1.1.2.1.1.1.2.7.1.1.1.1.1.1.1.1.2.2.#.2.1.<.<.7.J &       ",
"            + F ;.1.,.1.1.1.1.1.1.7.2.1.1.1.7.1.1.7.1.1.2.1.1.1.2.1.7.1.2.2.2.2.2.2.3.m.f.0 X       ",
"              w | n.5.1.1.1.1.2.1.1.1.1.1.1.1.2.1.2.1.2.7.1.2.1.1.1.7.1.1.2.1.1.2.1.1.n.Y # .       ",
"                x p.1.1.1.1.1.1.1.1.1.1.1.1.1.1.1.1.1.1.1.1.1.1.1.1.1.1.1.#.1.1.2.2.2.X.1 .         ",
"                % L +.1.2.2.1.#.1.$.1.2.2.1.1.1.1.1.2.1.1.2.1.1.1.$.2.2.2.1.1.%.1.$.p.u X           ",
"                . ; ` z.5.5.6.5.1.2.2.2.$.2.1.1.1.1.1.1.1.1.1.1.2.2.2.2.2.5.1.1.5.x.C #             ",
"                    , R ;.%.6.b.6.2.6.2.6.2.1.1.1.1.1.1.1.1.1.2.2.2.2.2.2.4.4.$.x.U -               ",
"                      ; T +.1.2.2.2.2.2.2.2.2.1.1.1.1.1.1.1.2.2.6.2.2.$.$.2.<.a.I #                 ",
"                        2 n t.-.2.2.2.2.2.2.2.2.2.1.1.1.1.1.1.2.2.2.1.2.2.:.o.c $                   ",
"                          . y ] j.5.2.2.$.2.2.2.1.1.1.1.1.2.2.2.#.2.6.5.k.M.r X   .                 ",
"                          .   - m { f.:.#.2.2.1.1.1.<.1.1.1.6.#.#.z.f. .B 2 .                       ",
"                                . - p E | f.h.3.:.,.,.>.:.:.h.f.} U a 2 .                           ",
"                                      o 4 a M L W W W Y Y L M p 3 o                                 ",
"                                                . . X . .                                           ",
"                                                                                                    ",
"                                                                                                    "
};
