/* XPM */
static char *result[] = {
/* columns rows colors chars-per-pixel */
"50 50 132 2 ",
"   c #010022",
".  c #080723",
"X  c #0C0B24",
"o  c #0F0E28",
"O  c #110F23",
"+  c #131325",
"@  c #181627",
"#  c #1C1A27",
"$  c #151428",
"%  c #1B1A29",
"&  c #201F27",
"*  c #242229",
"=  c #28272B",
"-  c #2B2A2A",
";  c #312E2B",
":  c #393824",
">  c #35332C",
",  c #38362D",
"<  c #3C3A2C",
"1  c #373633",
"2  c #383630",
"3  c #413F2C",
"4  c #494826",
"5  c #47442D",
"6  c #4D4B2C",
"7  c #514F29",
"8  c #565329",
"9  c #5C5B2F",
"0  c #444332",
"q  c #4C4B32",
"w  c #514E34",
"e  c #565535",
"r  c #585630",
"t  c #5C5A33",
"y  c #595639",
"u  c #65622D",
"i  c #67682B",
"p  c #6A682D",
"a  c #797827",
"s  c #77772A",
"d  c #7D7A2E",
"f  c #646432",
"g  c #6D6A33",
"h  c #666238",
"j  c #736F3B",
"k  c #727135",
"l  c #7A7333",
"z  c #7B7933",
"x  c #7D793F",
"c  c #827E37",
"v  c #807D3D",
"b  c #85832C",
"n  c #8A852A",
"m  c #8E8D2B",
"M  c #908C29",
"N  c #95932C",
"B  c #98932F",
"V  c #9C9A2B",
"C  c #848334",
"Z  c #898634",
"A  c #8A8933",
"S  c #958E36",
"D  c #989631",
"F  c #9D9A36",
"G  c #95933C",
"H  c #A09A3C",
"J  c #ABA42B",
"K  c #B3AE2F",
"L  c #B7B527",
"P  c #BAB428",
"I  c #BFBC2C",
"U  c #A4A234",
"Y  c #ACA533",
"T  c #ABA930",
"R  c #A8A33C",
"E  c #B2AC31",
"W  c #B7B036",
"Q  c #BAB534",
"!  c #B5B33E",
"~  c #C5BD27",
"^  c #C3BD2C",
"/  c #C5BD34",
"(  c #D6D417",
")  c #DAD517",
"_  c #DDD31C",
"`  c #DDDA1A",
"'  c #E0D917",
"]  c #E3DD1D",
"[  c #EEE70F",
"{  c #F9EC07",
"}  c #F6EC0D",
"|  c #F9EC0D",
" . c #FAF10E",
".. c #E6E213",
"X. c #EDE516",
"o. c #EEEA13",
"O. c #E2E01E",
"+. c #ECE41D",
"@. c #EDE91A",
"#. c #F9E716",
"$. c #F7EC14",
"%. c #F9EB14",
"&. c #F5E619",
"*. c #F9E71C",
"=. c #F6EA1B",
"-. c #F9EA1A",
";. c #F9F015",
":. c #F9F01A",
">. c #C6C124",
",. c #CDC526",
"<. c #C4C22E",
"1. c #C9C22D",
"2. c #CDC92C",
"3. c #D4CD24",
"4. c #D4CD2C",
"5. c #D5D323",
"6. c #DDD622",
"7. c #D7D22F",
"8. c #DCD62B",
"9. c #DBD929",
"0. c #CEC533",
"q. c #D5CE33",
"w. c #D7CD39",
"e. c #E4DD23",
"r. c #ECE423",
"t. c #E6E42A",
"y. c #EDE42E",
"u. c #F9E723",
"i. c #F2EB24",
"p. c #F9EC22",
"a. c #F4E82B",
"s. c #8B8842",
/* pixels */
"                                                                                                    ",
"                                                                                                    ",
"                                                                                                    ",
"                                        . X + + + + + X X .                                         ",
"                                X + # , 5 f c c C C z u 4 : = +                                     ",
"                            X $ 3 z Y 1.5.e.r.r.r.=.+.] 3.,.P d 5 + X                               ",
"                        . @ 0 Z ^ +.$.-.$.%.%.*.-.%.| %.$.| $.+.,.m 4 + X                           ",
"                    . X > A 2.@.| | } } | %.%.$.-.%.-.-.-.&.$.%.$.o.5.m 3 O                         ",
"                    % t Q r.o.$.$.} | $.$.$. .| } | $.=.=.-.$.-.-.} } X.~ u +                       ",
"                  * k 2.=.=.$.$.$.$.$.$.$.$.$.$.$.$.%.-.-.$.| -.$.$.} $.$.3.d &                     ",
"                & c t.o.$.$.$.$.$.$.$.$.$.$.$.$.$.%.$.$.$.$.$.$.$.$.$.$.$.&.] m *                   ",
"            . & z 9.$.$.%.%.$.$.$.$.$.$.$.$.$.$.$.$.$.$.$.$.$.$.$.%.$.$.$.$.$.6.n #                 ",
"            + f 5.} -.%.$.$.$.$.$.$.$.$.$.;.$.$.$.$.$.$.$.$.$.$.$.$.$.$.$.$.%.%.` a O               ",
"          X 0 <. .=.-.$.$.$.$.$.$.%.$.$.$.$.$.$.$.;.$.$.$.$.$.$.$.$.$.$.$.} -.*.| 3.r .             ",
"          = U =.$.=.=.} $.$.$.$.$.$.$.%.$.$.$.$.$.$.$.$.$.$.$.$.$.$.$.$.$.$.=.*.| [ K , .           ",
"        $ k t.} =.=.$.$.$.$.$.$.$.$.$.$.%.$.$.$.$.$.$.$.$.$.$.$.$.$.$.$.$.$.$.%.| } r.S @           ",
"        2 / ;.;.%.-.$.$.$.$.%.$.%.$.$.$.;.$.$.$.$.$.$.$.$.%.$.$.$.$.$.$.$.%.$.$.$.} $.4.w .         ",
"      o h y.| %.%.%.$.$.$.$.:.$.;.$.$.$.%.%.$.%.%.$.$.$.$.$.$.$.$.;.$.$.%.%.$.$.$.$.$.+.Z .         ",
"      * H p.%.%.-.%.$.| $.$.$.$.$.$.$.$.$.%.$.$.$.$.$.$.$.$.$.$.$.$.$.$.%.$.$.$.$.$.$.=.^ >         ",
"    . 0 q. .$.%.-.%.$.$.$.$.$.$.$.$.$.$.$.$.$.$.$.$.$.;.$.$.;.%.$.$.$.$.;.$.$.$.$.$.$.$.' i .       ",
"    $ j y.{ $.%.%.%.%.;.$.$.$.%.%.$.$.$.$.$.$.$.$.$.$.$.$.$.$.$.$.$.$.$.$.$.$.$.$.$.$.} o.m .       ",
"    % F -.| %.%.%.%.$.$.$.$.$.$.$.$.$.$.$.$.$.$.$.$.$.$.$.$.$.$.$.$.$.$.$.$.$.$.$.$.$.} [ J $       ",
"    = W ;.%.%.$.$.| $.$.$.$.$.$.;.$.$.%.$.$.$.%.%.%.$.$. .;.$.$.$.$.;.$.$.$.$.$.$.$.$.$.-.^ >       ",
"    - / ;.$.$.$.$.$.$.$.;.$.$.$.$.$.$.=.=.$.$.%.-.%.-.=.} o.=.$.$.$.$.$.$.$.$.$.$.$.$.$.%._ 7 .     ",
"    ; 0.$.$.$.$.$.$.$.$.%.$.$.%.$.$.%.$.$.$.$.} $.%.-.$.$.o.;.$.$.%.%.$.$.$.$.$.$.$.$.$.%.' 8       ",
"    ; 0.| $.$.$.$.$.$.$.$.;.$.$.$.$.%.$.} =.$.} ..@.$.$.=.=.} $.$.$.%.;.$.$.$.;.$.$.$.$.%.' 8 .     ",
"    ; 0.| $.$.%.$.$.$.;.$.$.$.$.$.$.$.$.} =.$.( D <.:.=.i.$.$.$.$.$.$.$.$.$.$.$.$.$.$.$.%.' 8       ",
"    ; 0.$.=.$.$.$.$.$.%.$.$.$.$.$.%.$.} $.=.o.V ; Z i.=.-.%.$.%.$.$.$.$.%.%.$.$.$.%.%.%.#.' 8       ",
"    - / %.$.$.$.$.$.$.$.$.$.%.$.$.$.;.} -.=.` i X q 7. .-.%.%.%.$.$.$.$.%.$.$.$.$.$.$.-.%._ 7       ",
"    = Q :.-.%.$.%.$.$.$.$.$.;.$.$.$.$.$.=.=.L ;   * F ;.| -.$.$.$.$.$.$.$.$.$.$.$.$.$.$.-.>.,       ",
"    * R -.%.%.| -.$.$.$.$.$.$.$.$.$.$.o.=.O.n X   X t e.{ #.$.$.$.$.$.$.$.$.$.$.$.$.$.$.#.J #       ",
"    @ v i.{ $.%.%.%.} $.$.$.$.$.$.$.=.;.$.,.5 X     - Q %.%.$.=.$.$.$.$.$.$.$.$.$.$.$.$.[ M .       ",
"    . w 8. .%.$.-.%.| $.$.$.$.$.$.$.=.X.o.V $       + k +.| %.$.$.$.$.$.$.$.$.$.$.$.$.$._ u         ",
"      = ! -.$.-.%.%.$.%.$.$.$.$.$.$.$.$.6.9 X         < <.;.-.$.%.$.$.$.$.$.| $.$.$.$.$.L -         ",
"      $ v a.$.$.%.%.%.%.$.$.$.$.$.$.$.&.E =           # Z =.$.$.$.$.%.$.$.| } $.$.$.$.O.b X         ",
"      . 0 w.%.$.| %.%.%.$.$.$.$.$.$.$.+.l           . X 8 6.} $.%.$.$.$.$.$.$.-.$.$.$.,.q           ",
"        % s.y.| $.%.$.$.$.$.%.%.%.%.#.,.0               = J $.$.=.;.$.$.$.} } =.&.$.+.D @           ",
"        . 1 ! =.-.=.$.$.| $.%.%.%.%.+.B @               $ g r.} $.$.$.$.;.o.$.u.&.} I 3             ",
"          o y w.%.#.} $.%.%.%.%.$.$.8.f                   > /  .$.$.$.$.$.;.=.u.| ) p .             ",
"          . $ x e.} ;.| %.%.%.$.$.$.T - .                 % Z i.$.$.$.$.$.%.=.$...n %               ",
"              = S t.-.$.%.%.%.%.-.] k .                   . 6 4.$.o.$.=.$.$.&.] N = . .             ",
"                = G e.| %.%.$.#.=.^ , .                     = K $.$.$.$.$.$.] N -                   ",
"                . = c 4.$.$.*.#.r.F @                       + p e.$.#.#.=.] N -                     ",
"                    % t I r.u.$.3.e .                         = T =.$.r.~ l * .                     ",
"                      O 2 Z q.O.V %                           X 6 >.>.a : X                         ",
"                        . @ 6 s <                               + 4 : O .                           ",
"                            . X                                   . .                               ",
"                                                                                                    ",
"                                                                                                    ",
"                                                                                                    "
};
