/* XPM */
static char *_7fb2a8fa5f641eee7c7eb2644558fa6Un4BkCl5rOTZdX89[] = {
/* columns rows colors chars-per-pixel */
"50 50 130 2 ",
"   c None",
".  c #010F2E",
"X  c #001427",
"o  c #001429",
"O  c #010F30",
"+  c #031334",
"@  c #04133C",
"#  c #051342",
"$  c #07114D",
"%  c #08114C",
"&  c #000E56",
"*  c #000E5F",
"=  c #001457",
"-  c #091154",
";  c #00145A",
":  c #0B115C",
">  c #000E63",
",  c #001464",
"<  c #0D1164",
"1  c #01146C",
"2  c #0E116A",
"3  c #031574",
"4  c #001973",
"5  c #07147B",
"6  c #08137C",
"7  c #001484",
"8  c #0B1484",
"9  c #001E85",
"0  c #0F138A",
"q  c #001E8B",
"w  c #10148C",
"e  c #001493",
"r  c #001E93",
"t  c #001E9B",
"y  c #131493",
"u  c #171499",
"i  c #19149E",
"p  c #002086",
"a  c #002088",
"s  c #002B97",
"d  c #002099",
"f  c #002A9B",
"g  c #011EA4",
"h  c #061EAD",
"j  c #091DAF",
"k  c #1C14A4",
"l  c #0D1EB6",
"z  c #111DB7",
"x  c #141EBD",
"c  c #002BA0",
"v  c #0049BB",
"b  c #1B1EC6",
"n  c #1D1FC8",
"m  c #211ECD",
"M  c #261ED3",
"N  c #291ED7",
"B  c #2C1EDA",
"V  c #1A21C6",
"C  c #2120CD",
"Z  c #3C9CCF",
"A  c #3E9BD1",
"S  c #439BD4",
"D  c #469BDA",
"F  c #4A9BDD",
"G  c #43A3D7",
"H  c #47A3DA",
"J  c #48A3DB",
"K  c #4E9BE3",
"L  c #519CE6",
"P  c #549CEA",
"I  c #5A9BEE",
"U  c #5E9CF0",
"Y  c #659BF3",
"T  c #699BF4",
"R  c #4FB2E7",
"E  c #53B4E8",
"W  c #5CC1EB",
"Q  c #4FC9F6",
"!  c #54CCF6",
"~  c #58CFF5",
"^  c #58CFF6",
"/  c #58CFF7",
"(  c #5BCBF7",
")  c #5DCAF8",
"_  c #5DCAF9",
"`  c #5DCCF9",
"'  c #5CD2FB",
"]  c #5FD6FB",
"[  c #5BD3FC",
"{  c #61C3EB",
"}  c #61CAF9",
"|  c #60CBF9",
" . c #60CAFA",
".. c #62CBFA",
"X. c #64CAFA",
"o. c #66CBFA",
"O. c #67CAFB",
"+. c #63CCFA",
"@. c #66CCFB",
"#. c #63CCFA",
"$. c #69CBFB",
"%. c #68CCFB",
"&. c #69CCFC",
"*. c #6ACDFC",
"=. c #6DCDFC",
"-. c #6DCCFD",
";. c #6BCCFC",
":. c #71CCFC",
">. c #72CCFD",
",. c #77CCFD",
"<. c #73CCFD",
"1. c #79CCFE",
"2. c #7DCCFE",
"3. c #7FCCFE",
"4. c #7CCCFE",
"5. c #62D3FC",
"6. c #64D4FD",
"7. c #64D6FE",
"8. c #62D8FB",
"9. c #6FE5FF",
"0. c #70E5FF",
"q. c #72E6FF",
"w. c #73E7FF",
"e. c #74E7FF",
"r. c #76EAFF",
"t. c #78EDFF",
"y. c #82CBFF",
"u. c #84CBFF",
"i. c #83CCFF",
"p. c #84CCFF",
/* pixels */
"    0.6.) | +.@.%.*.=.:.,.2.y.u.i.2.1.:.=.*.$.o.| | ) ( ( ! ! ! ! ! ! ! ! ! ! ! ! ! ! ! ! ! ' 9.    ",
"  W E J S D F F K L P I I Y Y T Y Y U I P L K K F D S S A A A Z Z Z Z Z Z Z Z Z Z Z Z Z Z Z G R W   ",
"0.E v c e t g h l x b m M N B B B B M m n b z j g g d r r q q q q q q q 9 9 p p 9 9 p p p 7 s v E 0.",
"] G f 4 > 1 3 5 8 0 y u i k k k k k k u y w 8 6 3 1 1 , ; ; ; ; ; ; ; ; = = = = = = = = = & 4 f H 5.",
"! Z 7 & . @ @ # % - : : < 2 2 2 2 2 < < : - $ # # @ + + o o o o o o o o o o o o o o o o o . * e S ( ",
"/ Z 9 = o o o o + + @ @ @ # # # # @ @ @ @ + + + o o X X X X X X X X X X X X X X o o X X o + , t S ) ",
"/ Z 9 = o X X X X X X o o o o o o o o X X X X X X X X o X X X X X X X X X X X X X X X X o @ 1 g D ) ",
"/ Z 9 = o X X X X X X X X X X X X X X X X X X X X X X o X X X X o X X X X X X X X X X X o # 3 g D | ",
"/ Z 9 = o o X X X X X o X X X X X X X X X X X X X X X X X X X X X X X X X X X X X X X X o # 5 h F o.",
"! Z 9 = o X X X X X X X X X X X X X X X X X X X X X X X X X X X X X X X X X X X X X X X + $ 8 l K o.",
"! Z 9 = o X X X X X X X X X X X X X X X X X X X X X X X X X X X X X X X X X X X X X X X + - w x L $.",
"! Z 9 = o X X X X X X X X X X X X X X X X X X X X X X X X X X X X X X X X X X X X X X X + : y V P ;.",
"! Z p = o X X X X X X X X X X X X X X X X X X X X X X X X X X X X X X X X X X X X X X o @ < u C I >.",
"! Z p = o X X X X X X X X X X X X X X X X X X X X X X X X X X X X X X X X X X X X X X o @ < k M U 1.",
"! Z 9 = o X X X X X X X X X X X X X X X X X X X X X X X X X X X X X X X X X X X X X X o @ 2 k N Y 2.",
"! Z 9 = o X X X X X X X X X X X X X X X X X X X X X X X X X X X X X X X X X X X X X X o @ 2 k B Y y.",
"! A 9 = o o X X X X X X X X X X X X X X X X X X X X X X X X X X X X X X X X X X X X X o # 2 k B T p.",
"! A q = o o X X X X X X X X X X X X X X X X X X X X X X X X X X X X X X X X X X X X X o # 2 k B T p.",
"/ A q = o o X X X X X X X X X X X X X X X X X X X X X X X X X X X X X X X X X X X X X o @ < k N Y 2.",
"/ S q = o o X X X X X X X X X X X X X X X X X X X X X X X X X X X X X X X X X X X X X o @ < i M U 1.",
"` S q ; o X X X X X X X X X X X X X X X X X X X X X X X X X X X X X X X X X X X X X X o @ < u m I :.",
"` S r , + o X X X X X X X X X X X X X X X X X X X X X X X X X X X X X X X X X X X X X o @ : y b P =.",
"+.S r , + o X X X X X X X X X X X X X X X X X X X X X X X X X X X X X X X X X X X X X X + - w b L %.",
"+.D t 1 @ o X X X X X X X X X X X X X X X X X X X X X X X X X X X X X X X X X X X X X X + $ 8 l K @.",
"@.F g 4 # o X X X X X X X X X X X X X X X X X X X X X X X X X X X X X X X X X X X X X X + # 5 h F +.",
"@.F h 5 # + X X X X X X X X X X X X X X X X X X X X X X X X X X X X X X X X X X X X o X o # 4 g D +.",
"%.K l 8 $ + X X X X X X X X X X X X X X X X X X X X X X X X X X X X X X X X X X X X X X o @ 1 t D +.",
"=.L x 0 - + X X X X X X X X X X X X X X X X X X X X X X X X X X X X X X X X X X X X X X X + , t S ` ",
"=.P b y : @ X X X X X X X X X X X X X X X X X X X X X X X X X X X X X X X X X X X X X X X o , r S ` ",
":.I m u : @ X X X X X X X X X X X X X X X X X X X X X X X X X X X X X X X X X X X X X X X o ; q S / ",
"1.U M i < @ X X X X X X X X X X X X X X X X X X X X X X X X X X X X X X X X X X X X X X X o ; q S / ",
"2.Y B k 2 @ o X X X X X X X X X X X X X X X X X X X X X X X X X X X X X X X X X X X X X X o ; a A / ",
"i.T B k 2 # o X X X X X X X X X X X X X X X X X X X X X X X X X X X X X X X X X X X X X X o ; a Z ! ",
"p.T B k 2 # o X X X X X X X X X X X X X X X X X X X X X X X X X X X X X X X X X X X X X X o ; a Z ! ",
"i.T B k 2 # o X X X X X X X X X X X X X X X X X X X X X X X X X X X X X X X X X X X X X X o ; p Z ! ",
"2.Y N k 2 # o X X X X X X X X X X X X X X X X X X X X X X X X X X X X X X X X X X X X X X o ; 9 Z ! ",
"1.U M k < @ o X X X X X X X X X X X X X X X X X X X X X X X X X X X X X X X X X X X X X X o ; 9 Z ! ",
",.I m u < @ o X X X X X X X X X X X X X X X X X X X X X X X X X X X X X X X X X X X X X X o ; 9 Z ! ",
"=.P b y : @ X X X X X X X X X X X X X X X X X X X X X X X X X X X X X X X X X X X X X X X o ; p Z ! ",
"*.L x w - + X X X X X X X X X X X X X X X X X X X X X X X X X X X X X X X X X X X X X X X o = p Z ! ",
"*.K l 8 $ + X X X X X X X X X X X X X X X X X X X X X X X X X X X X X X X X X X X X X X X o ; p Z ! ",
"@.F h 5 # + X X X X X X X X X X X o X X X X X X X X X X X X X X X X X X X X X X X X X X X o ; 9 Z ! ",
"+.F g 3 # o X X X X X X X X X X X X X X X X X X X X X X X X X X X X X X X X X X X X X X X o ; 9 Z ! ",
"| D t 1 @ o X X X X X X X X X X X X X X X X X X X X X X X X X o o o o o o o X X X X X X X o = 9 Z ! ",
") S t , + o X X X X X X X X X X X X X X X X X X o o + + + + @ @ # # # # @ @ @ + + + o o o o = 9 Z ! ",
"( S e * . o o o o o o o o o o o o o o o o o o + @ # % - - : < < 2 2 2 2 2 < : : - % # @ @ O & 7 Z ! ",
"6.J f 4 & = = = = = = = = = ; ; ; ; = ; ; ; , 1 1 3 6 0 w y u k k k k k k i u y 0 8 6 3 1 > 4 f H 8.",
"r.E v s 7 9 9 9 9 9 9 9 9 9 9 9 9 9 9 9 q q r t g g l z b n m M B B B B N M m b x l h g t e c v E t.",
"  W E G Z Z Z Z Z Z Z Z Z Z Z Z Z Z Z Z A A S S D D K K K P I U Y T T Y Y I P P K K F D D S H E {   ",
"    0.[ Q ! ! ! ! ! ! ! ! ! ! ! ! ! ! ! ! ! ( ) ) ) | O.*.=.:.1.2.i.u.y.2.,.:.=.%.@.+.+.` ( 7.e.    "
};
